<svg width="50" height="50" viewBox="0 0 50 50" fill="#701096" xmlns="http://www.w3.org/2000/svg">
<path d="M31.3705 1.25031C32.0195 0.420774 33.0695 -0.160698 34.1453 0.0397413C35.6021 0.238196 36.7097 1.73454 36.4398 3.18723C36.2333 4.76296 34.4807 5.89613 32.9583 5.4C31.7257 5.07056 30.9318 3.83816 30.9318 2.59385C25.7534 1.22451 20.1005 1.70478 15.2456 3.9751C11.5359 5.67783 8.34231 8.41254 5.96843 11.7228C5.5794 12.338 4.56316 11.814 4.74577 11.1453C4.98792 10.6233 5.3829 10.1947 5.72628 9.73822C9.14617 5.41191 14.0527 2.28426 19.4316 1.05186C23.3477 0.136984 27.4841 0.21835 31.3705 1.25031ZM33.2342 1.51426C32.2875 1.83774 32.085 3.2428 32.9047 3.81633C33.6491 4.46131 34.9313 3.93342 35.0444 2.96893C35.2429 2.00047 34.1393 1.10941 33.2342 1.51426Z" fill="#701096"/>
<path d="M38.105 5.76913C37.7517 5.13606 38.6489 4.4117 39.1848 4.91974C43.748 8.11684 47.1639 12.9194 48.6743 18.2857C49.8831 22.5425 49.9069 27.1288 48.7617 31.4015C49.4842 31.9631 50.0518 32.8086 49.9962 33.7572C50.0518 35.2218 48.6922 36.5335 47.2373 36.4661C45.7328 36.4899 44.401 35.067 44.5459 33.5647C44.5995 32.0882 45.9948 30.9113 47.4497 30.9887C48.6565 26.3747 48.4362 21.3815 46.755 16.9123C45.2406 12.846 42.5511 9.2262 39.0975 6.59668C38.762 6.32678 38.371 6.11245 38.105 5.76913ZM46.89 32.4434C45.9372 32.6736 45.58 34.029 46.3144 34.6859C47.0031 35.4857 48.5116 35.0193 48.6009 33.9576C48.8133 33.005 47.803 32.1378 46.89 32.4434Z" fill="#701096"/>
<path d="M21.7956 7.11068C21.8809 6.7356 22.2501 6.45181 22.6352 6.46769C24.1536 6.44784 25.672 6.4657 27.1904 6.45975C27.633 6.40815 28.1252 6.6582 28.2225 7.1206C28.4309 7.97991 28.5619 8.85708 28.7445 9.72234C30.2093 10.3395 31.6841 10.9349 33.1469 11.558C33.9369 11.1095 34.6474 10.536 35.4295 10.0776C35.7987 9.8434 36.271 10.0041 36.541 10.3118C37.6049 11.3695 38.6648 12.4332 39.7247 13.495C40.0125 13.751 40.1812 14.1856 39.9847 14.5468C39.5302 15.3505 38.9506 16.0769 38.4683 16.8647C39.0875 18.3373 39.6889 19.8177 40.3042 21.2922C41.1299 21.4629 41.9616 21.6038 42.7873 21.7804C43.2001 21.842 43.5812 22.2031 43.5594 22.6417C43.5733 24.2314 43.5733 25.823 43.5554 27.4126C43.5773 27.8452 43.2061 28.1985 42.7972 28.2639C41.9656 28.4445 41.122 28.5775 40.2904 28.7641C39.683 30.2366 39.0856 31.7151 38.4504 33.1777C38.9168 33.9139 39.4329 34.6185 39.8954 35.3587C40.1216 35.6822 40.1058 36.1724 39.8061 36.4462C38.7243 37.5477 37.6247 38.6332 36.533 39.7247C36.2572 40.066 35.7312 40.1732 35.362 39.9172C34.6137 39.4528 33.9091 38.921 33.1548 38.4665C31.69 39.0956 30.2173 39.6989 28.7405 40.2982C28.556 41.1278 28.419 41.9692 28.2404 42.7988C28.1769 43.2056 27.8335 43.5767 27.4008 43.5628C25.8744 43.5846 24.3461 43.5628 22.8178 43.5727C22.3851 43.6223 21.9067 43.3802 21.8115 42.9317C21.5911 42.0546 21.484 41.1536 21.2597 40.2784C19.777 39.7029 18.3102 39.0817 16.8454 38.4605C16.109 38.9368 15.4004 39.4548 14.6541 39.9172C14.3345 40.1295 13.8582 40.1097 13.5902 39.8219C12.4807 38.7443 11.401 37.635 10.3013 36.5474C9.95598 36.2676 9.84682 35.7417 10.1108 35.3726C10.5733 34.6264 11.1012 33.9219 11.5617 33.1717C10.9266 31.7111 10.3311 30.2326 9.72177 28.7601C8.89211 28.5835 8.05649 28.4386 7.22682 28.2639C6.81398 28.2044 6.43686 27.8512 6.45869 27.4146C6.44083 25.8269 6.44082 24.2373 6.45472 22.6497C6.4309 22.2091 6.80405 21.84 7.22285 21.7824C8.05053 21.6098 8.8802 21.4589 9.70788 21.2922C10.3271 19.8217 10.9226 18.3412 11.5458 16.8746C11.0814 16.0987 10.5217 15.3862 10.0592 14.6083C9.823 14.2392 9.97782 13.7649 10.2914 13.4969C11.3533 12.4372 12.4073 11.3695 13.4731 10.3137C13.7431 10.0022 14.2174 9.84141 14.5886 10.0796C15.3687 10.532 16.0772 11.0996 16.8553 11.562C18.3201 10.9448 19.7909 10.3375 21.2617 9.73623C21.4542 8.86303 21.5812 7.97792 21.7956 7.11068ZM23.3299 14.65C20.7039 15.0687 18.2546 16.5273 16.6489 18.6508C15.2198 20.5123 14.4358 22.864 14.5052 25.2137C14.5132 28.5696 16.2995 31.8441 19.0783 33.7135C21.087 35.0948 23.5899 35.7397 26.0154 35.4897C29.1852 35.2198 32.1644 33.3841 33.8614 30.699C35.5109 28.1707 35.9455 24.914 35.0841 22.0285C34.3517 19.5439 32.6606 17.3549 30.4336 16.0253C28.3277 14.7393 25.7633 14.265 23.3299 14.65Z" fill="#701096"/>
<path d="M0.00199456 16.3011C-0.0476265 14.8266 1.30207 13.4989 2.77482 13.5684C4.2833 13.5466 5.61712 14.9695 5.47619 16.4777C5.42459 17.9602 4.02726 19.141 2.5684 19.0695C1.2842 23.9614 1.60575 29.282 3.57074 33.9516C5.21618 37.9207 7.99695 41.4116 11.4962 43.9081C11.794 44.1006 12.1294 44.4955 11.8932 44.8587C11.7562 45.2774 11.1846 45.3469 10.8551 45.1227C6.34555 41.9692 2.95147 37.2539 1.40726 31.9711C0.131009 27.6587 0.0913124 22.997 1.23855 18.6508C0.520039 18.0872 -0.0377023 17.2457 0.00199456 16.3011ZM2.27861 15.0469C1.31596 15.3525 1.08373 16.7814 1.90744 17.3668C2.67558 18.0296 4.01535 17.468 4.07688 16.4539C4.2178 15.5113 3.16385 14.6797 2.27861 15.0469Z" fill="#701096"/>
<path d="M25.8605 20.3258C26.3984 20.1333 26.9899 20.7008 26.7954 21.2446C26.1225 23.8265 25.408 26.3965 24.7312 28.9784C24.6538 29.3098 24.4751 29.6948 24.0901 29.7345C23.5681 29.8714 23.0421 29.3237 23.2207 28.8077C23.8936 26.2258 24.6041 23.6499 25.281 21.068C25.3524 20.7544 25.5112 20.3972 25.8605 20.3258Z" fill="#701096"/>
<path d="M20.7496 21.1632C20.9838 20.9787 21.2974 20.7266 21.611 20.8715C22.1588 20.9965 22.3652 21.7844 21.9167 22.1436C20.829 23.122 19.7016 24.0587 18.6 25.0232C19.7016 25.9936 20.8329 26.9323 21.9226 27.9166C22.4307 28.3136 22.0635 29.2344 21.4264 29.1868C21.0493 29.2106 20.7912 28.9069 20.5273 28.6906C19.3443 27.6309 18.1097 26.6267 16.9387 25.555C16.5695 25.2574 16.6528 24.6541 17.03 24.4C18.2606 23.3105 19.515 22.2488 20.7496 21.1632Z" fill="#"/>
<path d="M27.9923 22.0285C27.4643 21.4014 28.4269 20.427 29.0482 21.0005C30.3761 22.1138 31.6801 23.2589 32.9861 24.402C33.4168 24.6918 33.4129 25.3625 32.9822 25.6503C31.6761 26.7914 30.3701 27.9365 29.0422 29.0518C28.4091 29.5817 27.4703 28.647 27.9982 28.0218C29.0939 26.978 30.2867 26.0333 31.4181 25.0252C30.2828 24.019 29.0899 23.0724 27.9923 22.0285Z" fill="#701096"/>
<path d="M43.8948 38.53C44.0913 38.2204 44.4665 37.889 44.8456 38.1331C45.2624 38.274 45.3517 38.8475 45.1115 39.177C41.6837 44.0708 36.412 47.6371 30.5845 48.9667C26.6624 49.8677 22.5101 49.8121 18.6238 48.7564C18.0621 49.4748 17.2285 50.0622 16.2757 49.9947C14.8169 50.0602 13.5029 48.7008 13.5704 47.2521C13.5327 45.7458 14.9717 44.43 16.4663 44.565C17.9351 44.6305 19.124 46.0197 19.0247 47.4783C23.2425 48.5758 27.764 48.5083 31.9262 47.1965C36.7216 45.718 40.9831 42.6122 43.8948 38.53ZM15.9423 45.9661C14.9201 46.1884 14.5648 47.6847 15.4024 48.3237C16.1467 49.0481 17.5818 48.5103 17.6274 47.4664C17.81 46.5317 16.8374 45.7101 15.9423 45.9661Z" fill="#701096"/>
</svg>
