<svg width="421" height="384" viewBox="0 0 421 384" fill="none" xmlns="http://www.w3.org/2000/svg">
<path d="M106.225 0C106.998 0.798806 107.6 1.73981 108.186 2.68081C112.72 9.44766 118.842 15.0309 125.601 19.5143C135.969 26.1348 147.466 30.8105 159.209 34.3696C166.574 36.3185 173.968 38.2967 181.555 39.2126C187.351 40.1662 193.194 40.8813 199.062 41.2326C202.842 41.195 206.594 41.8181 210.383 41.6634C214.151 41.8181 217.886 41.1992 221.65 41.241C238.283 40.1996 254.907 37.4017 270.636 31.7808C283.723 27.1594 296.345 20.4218 306.118 10.4221C308.143 8.1219 310.23 5.85931 311.999 3.34997C312.714 2.3546 313.153 1.12502 314.178 0.388948C312.413 5.54146 310.539 10.786 310.43 16.3023C310.435 19.2383 310.368 22.1784 310.489 25.1143C311.856 36.904 316.44 48.0037 321.639 58.568C328.824 72.7332 338.246 85.6605 348.648 97.6217C358.175 107.927 368.421 117.684 380.14 125.48C386.718 129.963 393.791 133.76 401.239 136.579C403.539 137.457 405.915 138.106 408.315 138.654C412.305 139.536 416.416 138.976 420.461 139.197C419.189 140.335 417.508 140.812 416.111 141.761C406.839 147.449 399.989 156.365 395.238 166.03C389.454 178.059 386.137 191.12 384.113 204.269C383.36 209.751 382.8 215.285 382.77 220.826C382.264 225.544 382.465 230.299 382.427 235.037C382.369 237.421 382.783 239.78 382.829 242.16C383.101 247.952 384.1 253.694 385.669 259.273C387.358 264.668 389.483 270.03 392.946 274.555C396.128 279.001 400.507 282.368 404.882 285.55C394.736 282.815 383.757 282.924 373.812 286.441C366.945 288.674 360.492 292.016 354.369 295.813C346.833 300.477 339.777 305.901 333.29 311.936C331.618 313.613 329.782 315.11 328.1 316.779C322.73 322.32 317.687 328.184 313.174 334.449C308.134 341.421 303.517 348.823 300.573 356.941C297.491 365.694 298.687 375.297 301.505 383.946C300.284 382.758 299.439 381.273 298.365 379.973C292.702 373.498 285.86 367.944 277.985 364.402C268.173 359.584 257.621 356.493 246.998 354.064C237.045 351.797 226.853 350.751 216.681 350.216C211.383 350.358 206.063 349.932 200.789 350.53C193.629 350.734 186.54 351.922 179.489 353.106C165.725 355.908 152.099 359.894 139.507 366.192C132.623 369.626 126.646 374.695 121.828 380.663C120.921 381.771 120.273 383.113 119.114 384C119.465 382.432 120.03 380.926 120.478 379.391C121.699 374.603 121.724 369.621 121.557 364.716C121.247 359.003 119.185 353.541 116.484 348.556C108.654 333.968 97.7639 321.212 85.5099 310.159C74.4228 300.318 61.8594 291.828 47.8238 286.826C40.3795 284.128 32.3496 283.15 24.4661 283.848C21.4172 284.216 18.4186 284.864 15.4324 285.567C16.5616 284.425 18.0129 283.702 19.2675 282.719C23.2616 279.62 26.783 275.881 29.3927 271.54C32.0526 267.763 33.4579 263.313 34.8254 258.951C36.8162 251.708 37.7488 244.205 38.0876 236.719C38.4305 232.135 38.418 227.513 38.1043 222.93C37.6359 208.836 35.6159 194.695 31.1576 181.279C28.4308 173.073 25.0558 165.039 20.4553 157.695C15.9218 150.941 10.121 144.935 3.06976 140.803C2.0702 140.18 0.798806 139.95 0 139.042C3.98985 139.164 8.02989 139.452 11.9695 138.658C17.6574 137.926 23.0274 135.647 28.067 132.987C39.6727 127.052 50.032 118.972 59.6428 110.231C65.4687 104.485 71.4032 98.7885 76.4052 92.2851C82.9838 84.2176 89.0815 75.736 94.4097 66.7902C99.5706 57.7232 104.276 48.3131 107.224 38.2716C109.165 31.6093 110.666 24.6626 110.135 17.6867C109.704 13.8766 109.273 10.0457 108.228 6.34026C107.818 4.14877 106.735 2.16221 106.225 0ZM124.76 29.2505C130.03 38.5393 135.241 47.8615 140.088 57.376C140.602 58.3296 141.297 59.1786 142.091 59.9147C145.174 62.7628 148.683 65.0923 152.221 67.3298C158.569 71.2067 165.75 73.3354 172.747 75.6817C170.836 78.3248 169.272 81.2106 167.335 83.8328C162.455 82.2185 157.704 80.1901 153.224 77.664C151.547 76.744 150.159 75.4015 148.519 74.4228C149.352 76.6687 150.765 78.6301 151.752 80.8091C153.956 85.4932 156.675 89.9138 159 94.531C157.306 97.3498 155.37 100.039 153.492 102.749C152.028 100.545 151.071 98.0566 149.707 95.7898C146.299 89.1317 142.74 82.5447 139.544 75.7779C138.804 76.6436 138.771 77.8815 138.302 78.8936C133.773 90.0895 127.562 100.57 120.243 110.164C108.069 126.542 93.2303 140.945 76.3926 152.48C75.5771 152.982 74.7741 153.517 74.0757 154.182C77.5762 155.244 81.1102 156.194 84.6609 157.089C93.0379 159.494 101.457 161.752 109.855 164.086C110.904 164.508 111.85 163.764 112.728 163.283C122.619 157.365 131.272 149.582 139.068 141.138C140.147 139.946 141.083 138.624 142.28 137.545C142.259 141.995 141.56 146.441 140.887 150.841C135.479 157.239 128.855 162.467 122.205 167.511C128.482 169.23 134.764 170.936 141.058 172.597C142.748 173.165 144.588 173.37 146.144 174.286C142.501 175.721 138.804 177.034 135.295 178.786C134.455 179.092 133.61 179.79 132.681 179.422C127.525 178.008 122.355 176.641 117.186 175.273C117.37 177.594 118.169 179.807 118.637 182.078C119.829 187.778 121.088 193.478 121.628 199.288C121.845 202.19 122.782 205.159 121.937 208.045C120.411 215.046 118.809 222.031 116.956 228.952C116.3 231.202 115.593 233.494 115.701 235.87C115.647 238.91 116.266 241.963 115.856 244.995C112.544 246.731 109.006 247.973 105.61 249.525C98.755 252.611 91.7874 255.455 84.9955 258.667C91.5491 260.992 97.6426 264.501 103.381 268.403C109.508 272.468 115.036 277.345 120.373 282.384C129.804 291.853 138.177 302.434 144.714 314.111C145.241 315.018 145.563 316.06 146.265 316.858C150.527 307.959 155.035 299.172 159.406 290.326C159.64 289.866 159.74 289.331 159.402 288.9C155.55 281.891 150.694 275.475 145.37 269.524C140.427 264.288 135.35 259.139 129.62 254.756C128.353 253.769 127.002 252.891 125.843 251.779C127.257 249.575 128.934 247.542 130.594 245.518C131.494 245.61 132.171 246.342 132.916 246.806C141.071 252.908 148.503 259.988 154.964 267.868C159.293 273.033 162.906 278.737 166.382 284.496C167.352 286.152 168.527 287.704 169.301 289.469C169.167 290.581 168.418 291.514 167.958 292.518C163.973 300.393 160.079 308.314 156.102 316.198C162.354 313.693 168.557 310.999 175.068 309.213C184.658 306.382 194.537 304.42 204.532 303.906C211.713 303.848 218.948 303.655 226.041 304.96C239.458 306.62 252.486 310.777 264.693 316.541C260.11 307.545 255.681 298.465 251.101 289.477C253.761 285.446 256.199 281.276 258.817 277.223C266.404 265.333 276.4 255.045 287.754 246.718C288.382 246.241 289.047 245.807 289.791 245.518C291.543 247.622 292.915 250.022 294.542 252.226C293.53 253.368 292.158 254.079 290.975 255.016C279.883 263.368 270.49 273.886 263.05 285.588C262.255 286.872 261.247 288.043 260.687 289.456C261.034 291.079 262.046 292.464 262.736 293.961C266.417 301.434 270.243 308.841 273.773 316.39C273.878 316.386 274.091 316.373 274.195 316.365C276.575 312.153 279.135 308.038 281.928 304.086C284.981 299.782 288.001 295.429 291.548 291.51C295.128 287.303 299.117 283.467 303.07 279.62C311.827 271.519 321.827 264.744 332.713 259.859C333.6 259.407 334.658 259.236 335.394 258.529C328.761 255.476 322.007 252.682 315.324 249.729C311.76 248.107 308.046 246.781 304.592 244.945C304.517 241.917 304.789 238.889 304.789 235.861C304.901 232.988 303.747 230.299 303.111 227.547C301.48 220.429 299.573 213.361 298.289 206.171C298.758 195.565 300.619 184.997 303.965 174.913C299.197 176.264 294.421 177.578 289.632 178.853C288.549 179.096 287.407 179.769 286.311 179.217C284.095 178.397 281.933 177.435 279.72 176.603C277.725 175.846 275.651 175.302 273.727 174.374C277.42 172.697 281.548 172.078 285.408 170.794C289.816 169.761 294.141 168.393 298.582 167.498C292.781 163.124 287.185 158.461 282.02 153.35C280.954 152.108 279.532 150.92 279.448 149.163C279.068 145.391 278.357 141.623 278.466 137.821C279.984 138.896 280.925 140.565 282.263 141.836C286.863 147.127 292.121 151.794 297.503 156.265C301.313 159.192 305.219 162.099 309.573 164.153C321.835 160.957 334.06 157.536 346.28 154.17C342.872 151.815 339.668 149.189 336.364 146.7C330.375 141.999 324.424 137.211 319.142 131.711C313.839 126.266 308.661 120.682 303.898 114.748C294.446 102.929 285.835 90.0936 281.079 75.6106C279.599 78.7138 277.893 81.7041 276.379 84.7906C273.15 90.7126 270.252 96.827 266.893 102.67C265.074 99.9595 263.234 97.2536 261.465 94.5101C264.974 87.8478 268.692 81.2775 271.929 74.473C266.492 78.3834 260.348 81.1855 254.058 83.4272C253.138 83.9416 252.736 82.8375 252.318 82.2478C251.181 80.2403 249.629 78.5172 248.429 76.5516C256.618 73.6366 264.844 70.4288 271.912 65.2512C274.421 63.4946 276.834 61.5792 279.043 59.4504C280.774 57.8403 281.615 55.5819 282.761 53.5702C286.554 46.3642 290.464 39.2252 294.274 32.0275C294.68 31.2873 295.031 30.5136 295.245 29.6897C293.409 30.1706 291.882 31.3667 290.197 32.1865C282.535 36.628 274.3 40.0449 265.806 42.5249C248.42 47.8071 230.244 50.7096 212.056 50.4001C204.515 50.4586 196.971 50.3457 189.476 49.4507C170.593 47.2216 151.861 42.5375 134.647 34.3529C131.293 32.7636 128.165 30.7352 124.76 29.2505ZM116.5 32.1781C115.898 37.2637 114.225 42.1318 112.753 47.0125C109.98 55.1804 106.3 63.0304 101.888 70.4413C95.104 82.3607 86.6893 93.2596 77.6348 103.531C64.7117 118.173 49.4716 130.891 32.2659 140.205C31.2622 140.753 30.1999 141.234 29.3425 142.004C36.4063 144.065 43.5454 145.855 50.5883 148.001C54.4694 149.009 58.3003 150.247 62.2023 151.167C64.4984 150.314 66.5142 148.871 68.5928 147.604C72.1059 145.466 75.3596 142.953 78.6678 140.519C90.3362 131.552 100.938 121.189 110.093 109.662C116.776 101.059 123.288 92.1806 127.784 82.2018C130.185 77.1915 131.757 71.8466 133.505 66.5895C134.158 65.1048 132.995 63.7581 132.422 62.47C128.813 55.8412 125.534 49.045 121.992 42.3827C120.143 38.9909 118.612 35.4151 116.5 32.1781ZM298.72 41.4417C295.111 48.5223 291.631 55.6781 287.591 62.5285C287.114 63.4612 286.366 64.4315 286.663 65.5439C288.244 72.1979 290.749 78.6092 293.827 84.7111C299.787 95.6226 307.151 105.71 315.244 115.128C323.529 124.664 332.684 133.48 342.78 141.092C347.376 144.668 352.064 148.156 357.163 150.995C357.572 151.288 358.062 151.138 358.513 151.025C366.251 148.825 374.009 146.688 381.783 144.601C384.949 143.584 388.195 142.873 391.419 142.07C389.14 140.586 386.66 139.452 384.339 138.035C372.495 131.05 361.433 122.686 351.722 112.941C345.36 106.722 339.434 100.06 333.976 93.0338C323.567 79.7552 314.412 65.2846 308.594 49.3796C306.503 43.7545 305.098 37.9161 303.638 32.1112C301.685 35.0387 300.406 38.3594 298.72 41.4417ZM364.49 158.369C363.327 158.77 361.78 158.691 361.073 159.862C357.221 165.746 354.448 172.266 352.014 178.845C347.753 190.973 345.331 203.779 345.135 216.644C344.658 222.332 344.62 228.078 345.139 233.766C345.227 239.621 346.163 245.443 347.393 251.156C347.84 252.59 347.874 254.593 349.522 255.217C359.772 259.742 370.002 264.334 380.257 268.859C379.989 267.872 379.65 266.914 379.312 265.956C375.184 254.02 374.017 241.311 373.825 228.76C373.733 225.13 374.26 221.52 374.188 217.89C374.833 205.44 376.631 192.964 380.491 181.07C383.795 170.012 388.216 159.105 395.292 149.887C385.096 152.965 374.749 155.512 364.49 158.369ZM25.5534 150.184C32.5043 161.091 37.7028 173.077 41.1281 185.545C45.0259 199.869 46.9539 214.745 46.6528 229.596C46.9121 242.954 44.8461 256.404 40.2163 268.951C42.9515 268.089 45.4483 266.63 48.0957 265.555C55.8746 262.004 63.6996 258.558 71.4869 255.033C72.5701 254.623 72.5659 253.263 72.8545 252.322C74.197 244.958 75.1547 237.492 75.2258 230.002C75.5604 225.418 75.5478 220.805 75.1965 216.221C75.2091 211.738 74.6487 207.271 73.9921 202.838C73.3605 197.648 72.4153 192.491 70.9265 187.473C68.597 177.996 64.9542 168.833 59.9607 160.443C59.6052 159.866 59.1744 159.247 58.4592 159.117C47.4767 156.198 36.5862 152.919 25.5534 150.184ZM70.6923 162.396C74.7574 171.442 78.2203 180.823 80.1065 190.588C81.7083 196.778 82.5238 203.139 83.2222 209.488C84.0921 220.617 84.1549 231.834 83.1888 242.958C82.9086 245.292 82.4652 247.617 82.4485 249.976C91.2939 246.037 100.16 242.13 109.006 238.186C109.449 237.969 109.876 237.668 109.993 237.158C110.967 234.464 111.486 231.633 112.071 228.835C113.255 221.55 113.916 214.151 113.531 206.774C113.159 204.31 113.309 201.809 113.012 199.342C112.101 192.763 110.9 186.21 109.102 179.811C108.316 177.477 107.613 175.085 106.425 172.923C105.94 171.94 104.769 171.756 103.832 171.446C92.8121 168.339 81.7835 165.24 70.6923 162.396ZM343.884 164.036C334.449 166.566 325.01 169.079 315.6 171.693C314.939 171.961 314.002 171.973 313.738 172.76C312.58 175.219 311.785 177.837 311.087 180.455C310.02 185.005 308.745 189.522 308.092 194.156C307.808 197.61 307.235 201.036 307.076 204.499C306.374 211.027 306.591 217.639 307.419 224.147C308.051 228.53 308.64 232.996 310.397 237.095C310.832 238.191 312.091 238.483 313.044 238.977C321.618 242.62 330.099 246.492 338.711 250.043C337.368 244.661 336.95 239.111 336.456 233.603C336.013 229.349 336.143 225.071 336.18 220.805C336.444 218.296 336.565 215.782 336.59 213.265C337.912 197.631 341.304 182.086 347.443 167.611C348.137 165.959 349.045 164.404 349.618 162.701C347.64 162.818 345.783 163.538 343.884 164.036ZM71.2025 264.869C63.3985 268.324 55.6697 271.933 47.8907 275.433C46.8368 275.939 45.6825 276.308 44.7917 277.09C61.1317 281.77 76.0079 290.749 88.8264 301.798C93.5063 305.738 97.7388 310.171 102.038 314.521C107.425 319.962 111.988 326.151 116.341 332.437C120.779 339.204 124.848 346.31 127.428 354.005C127.533 354.151 127.734 354.444 127.838 354.591C132.087 345.908 136.47 337.293 140.862 328.682C141.414 327.766 141.41 326.649 141.017 325.683C139.201 320.593 136.395 315.947 133.66 311.317C124.505 297.93 113.355 285.764 100.093 276.345C92.7619 271.126 84.6818 267.002 76.2755 263.811C74.5023 263.016 72.7917 264.2 71.2025 264.869ZM344.122 263.882C330.2 269.018 317.507 277.295 306.888 287.629C299.159 295.056 292.179 303.3 286.504 312.409C284.078 315.851 282.246 319.661 280.527 323.491C279.892 325.106 278.88 327 279.917 328.677C284.291 337.284 288.361 346.05 292.727 354.662C294.312 351.069 295.638 347.359 297.503 343.901C304.266 331.195 313.228 319.732 323.537 309.711C332.019 301.301 341.366 293.689 351.722 287.696C358.994 283.317 366.773 279.703 374.962 277.437C375.109 277.32 375.405 277.085 375.552 276.968C366.405 272.477 357.075 268.353 347.811 264.1C346.674 263.485 345.319 263.359 344.122 263.882ZM204.557 312.869C194.758 313.161 185.072 315.085 175.687 317.833C167.687 320.179 159.853 323.257 152.643 327.469C151.163 328.41 149.431 329.271 148.72 330.986C144.136 340.425 139.49 349.831 134.806 359.22C148.929 352.458 163.877 347.364 179.263 344.436C184.917 343.211 190.681 342.675 196.41 341.923C200.622 341.35 204.892 341.529 209.124 341.203C212.47 341.12 215.803 341.538 219.149 341.529C232.448 342.203 245.66 344.528 258.416 348.351C267.843 351.002 276.889 354.858 285.688 359.12C281.263 349.823 276.68 340.605 272.083 331.392C271.264 329.48 269.24 328.644 267.621 327.552C258.73 322.304 248.968 318.657 238.977 316.147C231.374 314.366 223.628 312.961 215.799 312.885C212.068 312.467 208.288 312.442 204.557 312.869Z" fill="white" />
<path d="M106.225 0C106.998 0.798806 107.6 1.73981 108.186 2.68081C112.72 9.44766 118.842 15.0309 125.601 19.5143C135.969 26.1348 147.466 30.8105 159.209 34.3696C166.574 36.3185 173.968 38.2967 181.555 39.2126C187.351 40.1662 193.194 40.8813 199.062 41.2326C202.842 41.195 206.594 41.8181 210.383 41.6634C214.151 41.8181 217.886 41.1992 221.65 41.241C238.283 40.1996 254.907 37.4017 270.636 31.7808C283.723 27.1594 296.345 20.4218 306.118 10.4221C308.143 8.1219 310.23 5.85931 311.999 3.34997C312.714 2.3546 313.153 1.12502 314.178 0.388948C312.413 5.54146 310.539 10.786 310.43 16.3023C310.435 19.2383 310.368 22.1784 310.489 25.1143C311.856 36.904 316.44 48.0037 321.639 58.568C328.824 72.7332 338.246 85.6605 348.648 97.6217C358.175 107.927 368.421 117.684 380.14 125.48C386.718 129.963 393.791 133.76 401.239 136.579C403.539 137.457 405.915 138.106 408.315 138.654C412.305 139.536 416.416 138.976 420.461 139.197C419.189 140.335 417.508 140.812 416.111 141.761C406.839 147.449 399.989 156.365 395.238 166.03C389.454 178.059 386.137 191.12 384.113 204.269C383.36 209.751 382.8 215.285 382.77 220.826C382.264 225.544 382.465 230.299 382.427 235.037C382.369 237.421 382.783 239.78 382.829 242.16C383.101 247.952 384.1 253.694 385.669 259.273C387.358 264.668 389.483 270.03 392.946 274.555C396.128 279.001 400.507 282.368 404.882 285.55C394.736 282.815 383.757 282.924 373.812 286.441C366.945 288.674 360.492 292.016 354.369 295.813C346.833 300.477 339.777 305.901 333.29 311.936C331.618 313.613 329.782 315.11 328.1 316.779C322.73 322.32 317.687 328.184 313.174 334.449C308.134 341.421 303.517 348.823 300.573 356.941C297.491 365.694 298.687 375.297 301.505 383.946C300.284 382.758 299.439 381.273 298.365 379.973C292.702 373.498 285.86 367.944 277.985 364.402C268.173 359.584 257.621 356.493 246.998 354.064C237.045 351.797 226.853 350.751 216.681 350.216C211.383 350.358 206.063 349.932 200.789 350.53C193.629 350.734 186.54 351.922 179.489 353.106C165.725 355.908 152.099 359.894 139.507 366.192C132.623 369.626 126.646 374.695 121.828 380.663C120.921 381.771 120.273 383.113 119.114 384C119.465 382.432 120.03 380.926 120.478 379.391C121.699 374.603 121.724 369.621 121.557 364.716C121.247 359.003 119.185 353.541 116.484 348.556C108.654 333.968 97.7639 321.212 85.5099 310.159C74.4228 300.318 61.8594 291.828 47.8238 286.826C40.3795 284.128 32.3496 283.15 24.4661 283.848C21.4172 284.216 18.4186 284.864 15.4324 285.567C16.5616 284.425 18.0129 283.702 19.2675 282.719C23.2616 279.62 26.783 275.881 29.3927 271.54C32.0526 267.763 33.4579 263.313 34.8254 258.951C36.8162 251.708 37.7488 244.205 38.0876 236.719C38.4305 232.135 38.418 227.513 38.1043 222.93C37.6359 208.836 35.6159 194.695 31.1576 181.279C28.4308 173.073 25.0558 165.039 20.4553 157.695C15.9218 150.941 10.121 144.935 3.06976 140.803C2.0702 140.18 0.798806 139.95 0 139.042C3.98985 139.164 8.02989 139.452 11.9695 138.658C17.6574 137.926 23.0274 135.647 28.067 132.987C39.6727 127.052 50.032 118.972 59.6428 110.231C65.4687 104.485 71.4032 98.7885 76.4052 92.2851C82.9838 84.2176 89.0815 75.736 94.4097 66.7902C99.5706 57.7232 104.276 48.3131 107.224 38.2716C109.165 31.6093 110.666 24.6626 110.135 17.6867C109.704 13.8766 109.273 10.0457 108.228 6.34026C107.818 4.14877 106.735 2.16221 106.225 0ZM124.76 29.2505C130.03 38.5393 135.241 47.8615 140.088 57.376C140.602 58.3296 141.297 59.1786 142.091 59.9147C145.174 62.7628 148.683 65.0923 152.221 67.3298C158.569 71.2067 165.75 73.3354 172.747 75.6817C170.836 78.3248 169.272 81.2106 167.335 83.8328C162.455 82.2185 157.704 80.1901 153.224 77.664C151.547 76.744 150.159 75.4015 148.519 74.4228C149.352 76.6687 150.765 78.6301 151.752 80.8091C153.956 85.4932 156.675 89.9138 159 94.531C157.306 97.3498 155.37 100.039 153.492 102.749C152.028 100.545 151.071 98.0566 149.707 95.7898C146.299 89.1317 142.74 82.5447 139.544 75.7779C138.804 76.6436 138.771 77.8815 138.302 78.8936C133.773 90.0895 127.562 100.57 120.243 110.164C108.069 126.542 93.2303 140.945 76.3926 152.48C75.5771 152.982 74.7741 153.517 74.0757 154.182C77.5762 155.244 81.1102 156.194 84.6609 157.089C93.0379 159.494 101.457 161.752 109.855 164.086C110.904 164.508 111.85 163.764 112.728 163.283C122.619 157.365 131.272 149.582 139.068 141.138C140.147 139.946 141.083 138.624 142.28 137.545C142.259 141.995 141.56 146.441 140.887 150.841C135.479 157.239 128.855 162.467 122.205 167.511C128.482 169.23 134.764 170.936 141.058 172.597C142.748 173.165 144.588 173.37 146.144 174.286C142.501 175.721 138.804 177.034 135.295 178.786C134.455 179.092 133.61 179.79 132.681 179.422C127.525 178.008 122.355 176.641 117.186 175.273C117.37 177.594 118.169 179.807 118.637 182.078C119.829 187.778 121.088 193.478 121.628 199.288C121.845 202.19 122.782 205.159 121.937 208.045C120.411 215.046 118.809 222.031 116.956 228.952C116.3 231.202 115.593 233.494 115.701 235.87C115.647 238.91 116.266 241.963 115.856 244.995C112.544 246.731 109.006 247.973 105.61 249.525C98.755 252.611 91.7874 255.455 84.9955 258.667C91.5491 260.992 97.6426 264.501 103.381 268.403C109.508 272.468 115.036 277.345 120.373 282.384C129.804 291.853 138.177 302.434 144.714 314.111C145.241 315.018 145.563 316.06 146.265 316.858C150.527 307.959 155.035 299.172 159.406 290.326C159.64 289.866 159.74 289.331 159.402 288.9C155.55 281.891 150.694 275.475 145.37 269.524C140.427 264.288 135.35 259.139 129.62 254.756C128.353 253.769 127.002 252.891 125.843 251.779C127.257 249.575 128.934 247.542 130.594 245.518C131.494 245.61 132.171 246.342 132.916 246.806C141.071 252.908 148.503 259.988 154.964 267.868C159.293 273.033 162.906 278.737 166.382 284.496C167.352 286.152 168.527 287.704 169.301 289.469C169.167 290.581 168.418 291.514 167.958 292.518C163.973 300.393 160.079 308.314 156.102 316.198C162.354 313.693 168.557 310.999 175.068 309.213C184.658 306.382 194.537 304.42 204.532 303.906C211.713 303.848 218.948 303.655 226.041 304.96C239.458 306.62 252.486 310.777 264.693 316.541C260.11 307.545 255.681 298.465 251.101 289.477C253.761 285.446 256.199 281.276 258.817 277.223C266.404 265.333 276.4 255.045 287.754 246.718C288.382 246.241 289.047 245.807 289.791 245.518C291.543 247.622 292.915 250.022 294.542 252.226C293.53 253.368 292.158 254.079 290.975 255.016C279.883 263.368 270.49 273.886 263.05 285.588C262.255 286.872 261.247 288.043 260.687 289.456C261.034 291.079 262.046 292.464 262.736 293.961C266.417 301.434 270.243 308.841 273.773 316.39C273.878 316.386 274.091 316.373 274.195 316.365C276.575 312.153 279.135 308.038 281.928 304.086C284.981 299.782 288.001 295.429 291.548 291.51C295.128 287.303 299.117 283.467 303.07 279.62C311.827 271.519 321.827 264.744 332.713 259.859C333.6 259.407 334.658 259.236 335.394 258.529C328.761 255.476 322.007 252.682 315.324 249.729C311.76 248.107 308.046 246.781 304.592 244.945C304.517 241.917 304.789 238.889 304.789 235.861C304.901 232.988 303.747 230.299 303.111 227.547C301.48 220.429 299.573 213.361 298.289 206.171C298.758 195.565 300.619 184.997 303.965 174.913C299.197 176.264 294.421 177.578 289.632 178.853C288.549 179.096 287.407 179.769 286.311 179.217C284.095 178.397 281.933 177.435 279.72 176.603C277.725 175.846 275.651 175.302 273.727 174.374C277.42 172.697 281.548 172.078 285.408 170.794C289.816 169.761 294.141 168.393 298.582 167.498C292.781 163.124 287.185 158.461 282.02 153.35C280.954 152.108 279.532 150.92 279.448 149.163C279.068 145.391 278.357 141.623 278.466 137.821C279.984 138.896 280.925 140.565 282.263 141.836C286.863 147.127 292.121 151.794 297.503 156.265C301.313 159.192 305.219 162.099 309.573 164.153C321.835 160.957 334.06 157.536 346.28 154.17C342.872 151.815 339.668 149.189 336.364 146.7C330.375 141.999 324.424 137.211 319.142 131.711C313.839 126.266 308.661 120.682 303.898 114.748C294.446 102.929 285.835 90.0936 281.079 75.6106C279.599 78.7138 277.893 81.7041 276.379 84.7906C273.15 90.7126 270.252 96.827 266.893 102.67C265.074 99.9595 263.234 97.2536 261.465 94.5101C264.974 87.8478 268.692 81.2775 271.929 74.473C266.492 78.3834 260.348 81.1855 254.058 83.4272C253.138 83.9416 252.736 82.8375 252.318 82.2478C251.181 80.2403 249.629 78.5172 248.429 76.5516C256.618 73.6366 264.844 70.4288 271.912 65.2512C274.421 63.4946 276.834 61.5792 279.043 59.4504C280.774 57.8403 281.615 55.5819 282.761 53.5702C286.554 46.3642 290.464 39.2252 294.274 32.0275C294.68 31.2873 295.031 30.5136 295.245 29.6897C293.409 30.1706 291.882 31.3667 290.197 32.1865C282.535 36.628 274.3 40.0449 265.806 42.5249C248.42 47.8071 230.244 50.7096 212.056 50.4001C204.515 50.4586 196.971 50.3457 189.476 49.4507C170.593 47.2216 151.861 42.5375 134.647 34.3529C131.293 32.7636 128.165 30.7352 124.76 29.2505ZM116.5 32.1781C115.898 37.2637 114.225 42.1318 112.753 47.0125C109.98 55.1804 106.3 63.0304 101.888 70.4413C95.104 82.3607 86.6893 93.2596 77.6348 103.531C64.7117 118.173 49.4716 130.891 32.2659 140.205C31.2622 140.753 30.1999 141.234 29.3425 142.004C36.4063 144.065 43.5454 145.855 50.5883 148.001C54.4694 149.009 58.3003 150.247 62.2023 151.167C64.4984 150.314 66.5142 148.871 68.5928 147.604C72.1059 145.466 75.3596 142.953 78.6678 140.519C90.3362 131.552 100.938 121.189 110.093 109.662C116.776 101.059 123.288 92.1806 127.784 82.2018C130.185 77.1915 131.757 71.8466 133.505 66.5895C134.158 65.1048 132.995 63.7581 132.422 62.47C128.813 55.8412 125.534 49.045 121.992 42.3827C120.143 38.9909 118.612 35.4151 116.5 32.1781ZM298.72 41.4417C295.111 48.5223 291.631 55.6781 287.591 62.5285C287.114 63.4612 286.366 64.4315 286.663 65.5439C288.244 72.1979 290.749 78.6092 293.827 84.7111C299.787 95.6226 307.151 105.71 315.244 115.128C323.529 124.664 332.684 133.48 342.78 141.092C347.376 144.668 352.064 148.156 357.163 150.995C357.572 151.288 358.062 151.138 358.513 151.025C366.251 148.825 374.009 146.688 381.783 144.601C384.949 143.584 388.195 142.873 391.419 142.07C389.14 140.586 386.66 139.452 384.339 138.035C372.495 131.05 361.433 122.686 351.722 112.941C345.36 106.722 339.434 100.06 333.976 93.0338C323.567 79.7552 314.412 65.2846 308.594 49.3796C306.503 43.7545 305.098 37.9161 303.638 32.1112C301.685 35.0387 300.406 38.3594 298.72 41.4417ZM364.49 158.369C363.327 158.77 361.78 158.691 361.073 159.862C357.221 165.746 354.448 172.266 352.014 178.845C347.753 190.973 345.331 203.779 345.135 216.644C344.658 222.332 344.62 228.078 345.139 233.766C345.227 239.621 346.163 245.443 347.393 251.156C347.84 252.59 347.874 254.593 349.522 255.217C359.772 259.742 370.002 264.334 380.257 268.859C379.989 267.872 379.65 266.914 379.312 265.956C375.184 254.02 374.017 241.311 373.825 228.76C373.733 225.13 374.26 221.52 374.188 217.89C374.833 205.44 376.631 192.964 380.491 181.07C383.795 170.012 388.216 159.105 395.292 149.887C385.096 152.965 374.749 155.512 364.49 158.369ZM25.5534 150.184C32.5043 161.091 37.7028 173.077 41.1281 185.545C45.0259 199.869 46.9539 214.745 46.6528 229.596C46.9121 242.954 44.8461 256.404 40.2163 268.951C42.9515 268.089 45.4483 266.63 48.0957 265.555C55.8746 262.004 63.6996 258.558 71.4869 255.033C72.5701 254.623 72.5659 253.263 72.8545 252.322C74.197 244.958 75.1547 237.492 75.2258 230.002C75.5604 225.418 75.5478 220.805 75.1965 216.221C75.2091 211.738 74.6487 207.271 73.9921 202.838C73.3605 197.648 72.4153 192.491 70.9265 187.473C68.597 177.996 64.9542 168.833 59.9607 160.443C59.6052 159.866 59.1744 159.247 58.4592 159.117C47.4767 156.198 36.5862 152.919 25.5534 150.184ZM70.6923 162.396C74.7574 171.442 78.2203 180.823 80.1065 190.588C81.7083 196.778 82.5238 203.139 83.2222 209.488C84.0921 220.617 84.1549 231.834 83.1888 242.958C82.9086 245.292 82.4652 247.617 82.4485 249.976C91.2939 246.037 100.16 242.13 109.006 238.186C109.449 237.969 109.876 237.668 109.993 237.158C110.967 234.464 111.486 231.633 112.071 228.835C113.255 221.55 113.916 214.151 113.531 206.774C113.159 204.31 113.309 201.809 113.012 199.342C112.101 192.763 110.9 186.21 109.102 179.811C108.316 177.477 107.613 175.085 106.425 172.923C105.94 171.94 104.769 171.756 103.832 171.446C92.8121 168.339 81.7835 165.24 70.6923 162.396ZM343.884 164.036C334.449 166.566 325.01 169.079 315.6 171.693C314.939 171.961 314.002 171.973 313.738 172.76C312.58 175.219 311.785 177.837 311.087 180.455C310.02 185.005 308.745 189.522 308.092 194.156C307.808 197.61 307.235 201.036 307.076 204.499C306.374 211.027 306.591 217.639 307.419 224.147C308.051 228.53 308.64 232.996 310.397 237.095C310.832 238.191 312.091 238.483 313.044 238.977C321.618 242.62 330.099 246.492 338.711 250.043C337.368 244.661 336.95 239.111 336.456 233.603C336.013 229.349 336.143 225.071 336.18 220.805C336.444 218.296 336.565 215.782 336.59 213.265C337.912 197.631 341.304 182.086 347.443 167.611C348.137 165.959 349.045 164.404 349.618 162.701C347.64 162.818 345.783 163.538 343.884 164.036ZM71.2025 264.869C63.3985 268.324 55.6697 271.933 47.8907 275.433C46.8368 275.939 45.6825 276.308 44.7917 277.09C61.1317 281.77 76.0079 290.749 88.8264 301.798C93.5063 305.738 97.7388 310.171 102.038 314.521C107.425 319.962 111.988 326.151 116.341 332.437C120.779 339.204 124.848 346.31 127.428 354.005C127.533 354.151 127.734 354.444 127.838 354.591C132.087 345.908 136.47 337.293 140.862 328.682C141.414 327.766 141.41 326.649 141.017 325.683C139.201 320.593 136.395 315.947 133.66 311.317C124.505 297.93 113.355 285.764 100.093 276.345C92.7619 271.126 84.6818 267.002 76.2755 263.811C74.5023 263.016 72.7917 264.2 71.2025 264.869ZM344.122 263.882C330.2 269.018 317.507 277.295 306.888 287.629C299.159 295.056 292.179 303.3 286.504 312.409C284.078 315.851 282.246 319.661 280.527 323.491C279.892 325.106 278.88 327 279.917 328.677C284.291 337.284 288.361 346.05 292.727 354.662C294.312 351.069 295.638 347.359 297.503 343.901C304.266 331.195 313.228 319.732 323.537 309.711C332.019 301.301 341.366 293.689 351.722 287.696C358.994 283.317 366.773 279.703 374.962 277.437C375.109 277.32 375.405 277.085 375.552 276.968C366.405 272.477 357.075 268.353 347.811 264.1C346.674 263.485 345.319 263.359 344.122 263.882ZM204.557 312.869C194.758 313.161 185.072 315.085 175.687 317.833C167.687 320.179 159.853 323.257 152.643 327.469C151.163 328.41 149.431 329.271 148.72 330.986C144.136 340.425 139.49 349.831 134.806 359.22C148.929 352.458 163.877 347.364 179.263 344.436C184.917 343.211 190.681 342.675 196.41 341.923C200.622 341.35 204.892 341.529 209.124 341.203C212.47 341.12 215.803 341.538 219.149 341.529C232.448 342.203 245.66 344.528 258.416 348.351C267.843 351.002 276.889 354.858 285.688 359.12C281.263 349.823 276.68 340.605 272.083 331.392C271.264 329.48 269.24 328.644 267.621 327.552C258.73 322.304 248.968 318.657 238.977 316.147C231.374 314.366 223.628 312.961 215.799 312.885C212.068 312.467 208.288 312.442 204.557 312.869Z" fill="white" />
<path d="M240.516 74.8704C242.971 77.1706 244.962 79.9141 247.007 82.574C251.323 88.2368 254.593 94.5812 258.161 100.721C260.934 105.597 263.757 110.44 266.571 115.292C267.082 116.254 267.763 117.203 267.793 118.332C267.897 123.142 268.411 127.926 268.876 132.711C269.75 138.925 269.992 145.203 270.561 151.451C270.733 153.074 270.992 154.726 270.737 156.357C263.016 160.614 255.237 164.772 247.354 168.72C245.401 169.807 243.251 170.522 241.361 171.727C254.292 175.917 267.169 180.288 280.097 184.491C281.33 184.934 282.635 185.223 283.785 185.879C288.223 200.747 292.254 215.736 296.211 230.742C297.721 236.714 299.402 242.678 300.058 248.826C300.226 250.825 300.677 252.783 301.058 254.752C300.79 254.464 300.539 254.163 300.309 253.849C290.184 235.64 281.418 216.702 273.397 197.481C273.045 196.084 271.536 195.854 270.36 195.528C261.77 193.278 253.192 190.99 244.585 188.807C247.024 191.492 249.658 193.985 252.31 196.452C258.408 202.483 264.585 208.451 270.13 215C271.201 216.079 270.724 217.694 270.444 218.998C267.316 231.077 264.915 243.343 261.331 255.309C258.713 264.836 255.033 274.095 250.093 282.669C248.726 284.647 247.609 286.822 245.953 288.587C246.584 286.249 247.433 283.969 247.693 281.548C250.67 261.963 253.928 242.423 257.023 222.854C257.161 221.851 257.341 220.625 256.408 219.944C252.092 215.82 247.684 211.788 243.527 207.497C243.925 214.879 242.235 222.24 239.592 229.094C236.647 236.25 232.691 243.042 227.543 248.843C222.595 254.518 216.836 259.436 210.776 263.878C210.425 264.225 209.906 264.233 209.534 263.92C203.449 259.34 197.849 254.142 192.655 248.579C182.864 237.304 176.398 222.566 177.168 207.439C175.779 208.33 174.755 209.643 173.575 210.772C170.752 213.524 167.979 216.33 164.997 218.915C164.412 219.446 163.801 219.965 163.316 220.596C163.086 221.47 163.207 222.39 163.308 223.281C166.219 239.943 168.803 256.659 171.693 273.326C172.442 278.323 172.944 283.384 174.391 288.244C172.91 286.843 171.957 285.011 170.894 283.296C162.609 269.156 158.302 253.184 154.391 237.4C152.714 230.625 150.908 223.879 149.661 217.012C149.582 216.389 149.523 215.707 150.004 215.226C151.907 212.7 154.299 210.601 156.39 208.242C157.641 206.703 159.147 205.41 160.602 204.08C165.608 199.074 170.698 194.148 175.616 189.054C166.905 191.191 158.231 193.483 149.506 195.578C148.653 195.862 147.453 195.825 147.127 196.858C141.447 209.894 135.893 223.001 129.507 235.715C126.998 241.143 124.12 246.388 121.159 251.582C120.591 252.657 120.068 253.765 119.286 254.711C119.403 253.096 119.921 251.553 120.243 249.976C120.996 246.559 121.239 243.046 122.104 239.65C123.878 232.189 125.831 224.77 127.813 217.359C130.716 207.008 133.38 196.586 136.479 186.289C136.608 185.75 136.96 185.294 137.529 185.181C151.184 180.79 164.747 176.076 178.435 171.781C177.795 171.058 176.724 170.899 175.909 170.413C167.168 165.972 158.553 161.296 149.992 156.52C149.31 156.227 149.573 155.32 149.565 154.751C149.95 152.049 150.063 149.322 150.343 146.617C150.623 141.209 151.56 135.868 151.853 130.461C152.639 126.333 152.488 122.109 153.049 117.952C153.308 116.475 154.207 115.233 154.927 113.949C159.469 106.312 163.755 98.5292 168.197 90.8339C170.761 86.4008 173.684 82.1767 176.988 78.2622C177.916 77.1999 178.732 76.0121 179.89 75.1798C179.209 77.4759 178.096 79.613 177.352 81.884C172.893 94.8238 168.46 107.776 164.358 120.833C163.253 123.945 163.889 127.282 163.575 130.498C163.258 133.271 163.258 136.065 163.22 138.85C163.007 141.845 162.639 144.856 162.885 147.859C164.872 149.147 167.068 150.067 169.167 151.158C176.072 154.676 183.119 157.896 190.137 161.179C190.898 161.472 191.722 161.982 192.55 161.622C192.709 160.878 192.989 160.134 192.897 159.368C192.32 158.16 191.279 157.273 190.509 156.198C187.975 152.764 186.214 148.603 186.293 144.279C186.456 138.654 188.1 133.179 190.388 128.068C192.153 123.945 194.081 119.888 196.209 115.932C196.992 114.493 197.569 112.924 198.614 111.645C198.28 115.267 197.828 118.88 197.46 122.502C197.205 125.095 196.431 127.679 196.749 130.302C197.665 130.879 198.702 131.347 199.815 131.272C200.291 131.029 200.429 130.448 200.697 130.026C202.111 127.157 202.997 124.083 203.855 121.017C208.104 120.871 212.365 121.163 216.61 120.808C217.965 124.392 218.768 128.219 220.604 131.615C221.842 131.506 222.951 130.858 224.017 130.256C223.323 124.058 222.599 117.847 222.102 111.628C223.009 112.791 223.453 114.221 224.143 115.513C226.43 119.967 228.613 124.472 230.65 129.047C232.846 133.677 234.025 138.75 234.33 143.856C234.289 149.256 231.792 154.366 228.241 158.339C227.35 159.193 227.605 160.506 227.844 161.581C228.651 162.007 229.5 161.484 230.261 161.187C236.112 158.394 242.076 155.83 247.868 152.911C251.156 151.142 254.66 149.783 257.835 147.813C258.098 144.952 257.479 142.112 257.504 139.256C257.513 137.027 257.412 134.802 257.178 132.589C256.956 128.495 257.337 124.271 256.036 120.31C252.473 109.562 248.922 98.8053 245.213 88.1029C243.674 83.6781 242.469 79.1362 240.516 74.8704Z" fill="white"/>
<path d="M184.482 78.2119C190.969 79.4373 197.502 80.3992 204.084 80.9513C214.895 82.3607 225.652 79.8472 236.309 78.3374C237.028 80.2319 237.266 82.2645 237.889 84.1925C238.099 85.075 238.487 85.97 238.37 86.8942C231.641 88.3538 224.795 89.2865 217.919 89.6169C209.425 89.6461 200.898 89.8636 192.479 88.5462C189.016 87.9314 185.436 87.7934 182.094 86.6098C182.299 84.9453 182.935 83.3853 183.332 81.7668C183.667 80.5665 183.884 79.316 184.482 78.2119Z" fill="white" />
<path d="M173.73 116.898C173.893 116.475 174.01 115.446 174.704 115.869C178.205 117.299 181.651 118.876 185.264 120.017C186.306 120.406 187.469 120.574 188.384 121.243C187.314 123.853 186.415 126.529 185.273 129.105C180.806 127.78 176.298 126.349 172.153 124.196C172.12 121.678 173.111 119.298 173.73 116.898Z" fill="white" />
<path d="M239.692 118.349C241.942 117.512 244.083 116.404 246.363 115.635C247.274 118.437 247.902 121.335 248.416 124.233C245.305 125.956 241.821 126.893 238.487 128.098C237.379 128.369 236.271 129.047 235.112 128.871C234.226 126.236 232.946 123.669 232.499 120.925C234.878 120.017 237.35 119.369 239.692 118.349Z" fill="white" />
<path d="M138.712 229.467C140.084 227.781 141.217 225.786 143.011 224.519C143.814 227.467 144.563 230.428 145.353 233.381C144.145 234.201 142.677 234.464 141.339 235.004C139.063 235.782 136.876 236.873 134.488 237.287C135.483 234.485 137.144 231.972 138.712 229.467Z" fill="white" />
<path d="M277.684 224.757C278.365 224.895 278.717 225.594 279.181 226.058C281.908 229.467 284.455 233.155 285.843 237.321C283.376 236.852 281.163 235.602 278.788 234.841C277.558 234.351 276.178 234.142 275.095 233.348C275.923 230.474 276.697 227.576 277.684 224.757Z" fill="white" />
<path d="M179.526 273.15C186.423 270.21 193.692 267.997 201.144 267.077C204.218 269.465 206.857 272.372 209.986 274.702C213.227 272.401 215.945 269.419 219.199 267.136C227.484 267.864 235.648 270.306 243.105 273.978C242.741 276.847 242.636 279.804 241.791 282.577C239.249 281.761 236.848 280.557 234.293 279.77C228.827 278.026 223.231 276.479 217.484 276.082C208.702 275.074 199.764 276.019 191.245 278.294C186.925 279.478 182.801 281.243 178.569 282.677C177.979 281.121 178.092 279.432 177.895 277.809C177.791 276.655 177.54 275.505 177.59 274.346C178.038 273.702 178.861 273.501 179.526 273.15Z" fill="white" />
</svg>
