<svg width="673" height="547" viewBox="0 0 673 547" fill="none" xmlns="http://www.w3.org/2000/svg">
<path d="M152.028 0.4995C161.566 -1.20112 171.666 1.51248 179.215 7.54597C195.423 20.1009 198.506 46.6158 184.62 62.0026C177.64 70.2765 166.956 75.0013 156.205 75.2305C146.009 75.0604 136.434 69.7515 129.594 62.4019C122.688 55.7547 119.302 45.9799 119.731 36.486C120.5 18.9475 134.659 3.14654 152.028 0.4995Z" fill="white"/>
<path d="M479.248 2.87303C492.343 0.921021 506.739 3.33146 517.142 11.9528C526.939 19.8348 532.337 31.961 534.725 44.0649C538.94 66.6905 535.339 89.9002 529.771 111.971C525.542 129.192 520.004 146.057 513.845 162.672C512.832 165.896 510.887 168.861 510.503 172.247C527.102 176.158 543.524 180.905 559.443 187.028C571.887 191.797 584.161 197.157 595.533 204.145C605.419 209.956 614.728 216.87 622.714 225.129C623.305 225.705 623.778 226.4 624.215 227.118C620.606 228.234 617.087 229.683 613.907 231.739C612.236 232.671 610.772 234.053 608.909 234.593C599.504 226.275 588.517 220.019 577.47 214.171C555.103 203.013 531.132 195.479 506.946 189.379C505.756 189.053 504.536 188.972 503.323 189.002C497.837 201.446 492.528 213.993 486.391 226.142C478.871 241.373 471.13 256.501 462.789 271.304C462.057 272.31 463.07 273.323 463.462 274.247C479.544 301.612 494.332 329.739 507.686 358.538C529.808 352.542 551.606 345.059 572.154 334.833C585.677 327.957 598.565 319.809 610.366 310.27C615.423 313.102 620.584 315.964 626.403 316.888C624.333 320.09 621.161 322.374 618.617 325.177C605.212 337.155 589.396 346.079 573.233 353.747C554.349 362.59 534.452 369.045 514.355 374.509C525.527 401.224 534.393 429.121 538.134 457.906C538.57 462.853 539.635 467.77 539.443 472.761C539.583 483.253 539.945 493.885 537.461 504.163C535.199 514.854 530.392 525.258 522.533 532.985C516.44 539.417 508.299 543.868 499.648 545.68C490.561 547.832 481.067 547.107 471.995 545.266C451.122 540.867 431.845 531.018 413.945 519.675C386.92 502.248 362.054 481.648 338.415 459.91C334.045 456.42 330.452 452.087 326.252 448.412C320.958 452.671 316.351 457.699 311.087 461.995C293.053 478.195 273.984 493.257 254.042 507.046C239.432 517.073 224.134 526.13 207.978 533.458C192.155 540.342 175.089 545.547 157.662 544.704C146.43 543.979 135.147 539.491 127.42 531.129C117.335 521.051 113.549 506.529 112.396 492.724C110.688 468.398 115.568 444.175 121.927 420.818C125.875 406.791 130.652 393.002 136.005 379.456C136.648 377.955 137.277 376.447 137.58 374.842C123.79 371.737 110.274 367.426 96.9351 362.76C80.0251 356.623 63.4699 349.296 48.1348 339.854C31.0104 329.421 15.3351 315.454 6.1444 297.375C2.0925 289.693 0.0665458 281.042 0 272.369C0.539761 263.991 2.22559 255.54 6.1444 248.05C10.7952 238.253 18.3445 230.26 26.2043 222.948C41.7168 209.653 59.6916 199.509 78.4871 191.627C99.1977 182.687 120.825 176.047 142.748 170.79C142.659 170.058 142.519 169.341 142.327 168.639C134.955 148.32 128.382 127.654 123.886 106.492C122.659 99.9708 121.195 93.4641 120.869 86.8169C120.012 81.094 121.18 75.371 121.424 69.6555C124.16 71.3191 125.934 74.1658 128.7 75.8294C131.258 77.8924 134.467 78.9867 136.974 81.0718C137.905 83.5414 137.698 86.255 138.164 88.8281C142.046 115.55 150.66 141.303 160.272 166.443C161.522 166.487 162.786 166.494 164.013 166.206C196.392 159.47 229.25 155.263 262.213 152.853C267.315 151.862 272.712 153.008 277.688 151.374C283.581 145.163 288.89 138.419 294.857 132.268C298.362 127.691 302.909 124.068 306.466 119.528C308.07 117.354 310.414 115.838 311.945 113.62C292.033 95.1351 271.152 77.5818 248.408 62.6608C234.278 53.714 219.734 44.9004 203.623 40.0278C203.083 38.1423 203.394 36.1681 203.32 34.2457C203.298 29.6023 201.7 25.1881 200.577 20.7369C204.377 21.2914 207.978 22.7111 211.638 23.8498C238.774 33.6172 262.775 50.1797 285.43 67.7109C298.82 78.3286 311.804 89.4639 324.233 101.169C326.733 99.7638 328.492 96.8875 330.851 95.0686C335.716 91.0684 339.85 86.2845 344.722 82.2992C362.837 65.4557 382.151 49.847 402.639 35.9537C413.819 28.6189 425.294 21.6833 437.376 15.9382C450.671 9.80859 464.593 4.44795 479.248 2.87303ZM433.864 37.7061C402.654 55.0006 374.964 77.9072 348.915 102.093C344.87 105.664 340.996 109.442 337.35 113.413C340.678 117.236 344.633 120.474 347.894 124.371C353.299 130.752 359.784 136.135 365.085 142.619C367.74 145.377 370.335 148.194 372.819 151.115C374.949 152.483 377.759 152.194 380.213 152.365C418.115 155.152 455.869 160.402 493.171 167.744C504.506 139.233 514.34 109.812 518.148 79.2455C519.619 65.6553 520.019 51.4293 515.043 38.4529C512.218 30.9332 506.414 24.249 498.591 21.809C493.378 19.7609 487.707 20.5742 482.25 20.4263C464.897 21.7203 448.963 29.6097 433.864 37.7061ZM301.963 151.004C317.675 150.553 333.395 150.76 349.114 150.967C345.188 147.078 341.336 143.107 337.454 139.174C333.387 134.634 329.247 130.138 324.766 126.005C317.239 134.397 308.958 142.139 301.963 151.004ZM300.905 168.72C295.937 169.496 290.901 168.75 285.918 169.201C285.06 169.807 284.395 170.635 283.729 171.434C276.868 179.848 269.74 188.041 263.011 196.566C243.972 220.241 226.943 245.44 210.425 270.905C216.119 279.97 221.442 289.272 227.202 298.307C234.574 310.367 242.5 322.064 250.198 333.909C255.713 314.293 267.13 297.19 277.711 280.022C282.99 271.592 285.955 261.655 285.408 251.673C285.748 240.834 284.594 229.92 286.295 219.162C287.456 210.762 290.51 202.252 296.72 196.248C300.935 191.745 306.725 189.127 312.61 187.604C318.629 186.044 324.958 185.031 331.154 186.162C341.846 187.309 352.952 191.922 359.089 201.15C365.359 210.015 367.074 221.106 367.858 231.695C368.08 238.349 367.392 245.063 368.531 251.666C369.1 257.463 370.89 263.075 373.278 268.361C377.418 276.672 383.237 283.97 388.361 291.675C396.11 302.958 403.016 315.121 406.388 328.489C417.619 312.141 428.548 295.556 438.922 278.639C439.934 276.857 441.362 275.245 441.968 273.264C439.121 268.369 435.831 263.733 432.881 258.89C416.052 233.447 398.403 208.5 378.816 185.098C374.283 179.781 369.973 174.221 365.152 169.193C361.795 168.801 358.408 169.326 355.052 168.986C346.977 168.01 338.814 168.439 330.703 168.336C320.773 168.439 310.821 168.069 300.905 168.72ZM166.712 183.197C166.934 184.055 167.178 184.905 167.533 185.726C172.886 198.163 178.513 210.481 184.65 222.548C189.974 233.144 195.253 243.776 201.279 253.987C212.274 236.604 224.171 219.798 236.467 203.302C244.637 192.122 253.444 181.43 261.858 170.435C229.923 172.558 198.048 176.595 166.712 183.197ZM389.264 170.361C411.586 197.719 432.385 226.371 451.72 255.88C464.157 232.523 476.328 208.965 486.413 184.477C457.51 178.303 428.156 174.376 398.757 171.411C395.563 171.301 392.384 171.071 389.264 170.361ZM55.2109 223.177C47.0553 228.345 38.9145 233.794 32.2747 240.885C24.9029 247.68 19.2465 256.657 17.5385 266.631C17.154 270.506 17.2797 274.417 17.4054 278.306C18.2262 284.724 20.9176 290.817 24.5702 296.118C33.0215 308.326 45.2586 317.221 57.6952 325.007C83.1897 340.393 111.583 350.22 140.264 357.769C141.698 358.139 143.14 358.605 144.641 358.634C145.661 356.365 146.43 353.998 147.547 351.78C160.198 324.186 174.646 297.471 189.604 271.075C190.144 270.306 190.084 269.337 189.523 268.62C178.461 248.708 168.073 228.419 158.815 207.612C155.555 200.788 153.018 193.593 149.625 186.857C116.84 194.969 84.2618 205.631 55.2109 223.177ZM325.505 223.554C323.132 226.408 321.668 229.942 320.721 233.499C319.716 236.693 322.444 241.011 325.993 240.449C327.08 239.31 327.272 237.691 327.768 236.264C328.5 233.41 330.356 230.659 333.003 229.314C337.395 228.108 340.057 233.166 339.857 236.878C340.36 239.998 338.393 242.497 336.848 244.967C339.443 247.281 344.663 247.081 346.068 243.473C348.693 237.654 347.229 230.807 344.404 225.343C342.985 222.142 339.709 220.3 336.448 219.472C332.382 218.644 328.308 220.729 325.505 223.554ZM296.602 222.038C293.349 225.299 292.21 230.179 292.417 234.667C292.255 238.926 292.75 243.562 295.508 247C296.299 248.242 297.704 247.51 298.717 247.052C299.109 243.555 296.543 240.427 297.29 236.915C297.748 234.822 298.177 232.464 299.833 230.963C302.037 230.061 304.026 232.101 304.854 233.957C306.14 236.205 305.66 238.859 305.808 241.329C308.248 240.456 309.756 237.883 309.823 235.355C310.022 231.406 308.492 227.51 306.318 224.278C304.181 221.461 299.626 219.295 296.602 222.038ZM314.762 240.257C308.691 241.736 304.307 246.505 299.116 249.662C296.809 251.392 293.194 252.76 293.179 256.154C292.787 258.904 293.497 261.906 295.922 263.54C300.765 267.067 305.098 271.385 310.555 274.003C313.749 275.615 317.483 275.26 320.936 274.986C328.197 273.463 333.513 267.836 340.02 264.679C342.674 263.363 345.528 261.707 346.608 258.771C347.162 256.531 346.741 253.825 344.811 252.361C341.506 249.736 337.195 249.1 333.328 247.688C328.182 246.046 323.716 242.919 318.836 240.686C317.572 240.057 316.122 239.813 314.762 240.257ZM337.838 270.646C331.243 274.424 324.707 279.985 316.618 279.304C309.793 279.179 304.588 274.277 299.441 270.424C298.192 269.722 296.484 268.117 295.086 269.271C294.096 271.681 293.807 274.306 293.068 276.798C290.465 285.648 285.637 293.575 281.962 301.982C278.701 308.555 275.914 315.357 273.54 322.3C270.05 333.31 267.329 345.052 269.503 356.616C269.829 359.019 271.744 360.668 273.104 362.524C277.03 367.685 281.171 372.683 285.186 377.777C285.777 378.376 286.295 379.286 287.249 379.323C291.589 379.981 295.996 380.217 300.388 380.129C308.765 380.136 317.15 380.077 325.527 380.447C335.539 379.759 345.595 380.513 355.614 379.818C359 379.256 362.438 379.471 365.854 379.301C367.281 377.341 369.204 375.641 370.106 373.378C371.585 363.914 373.854 354.546 374.402 344.948C376.457 328.482 370.616 312.222 362.645 298.078C358.697 290.277 353.233 283.282 350.12 275.06C349.033 272.635 348.057 269.951 345.89 268.273C342.977 267.578 340.264 269.278 337.838 270.646ZM198.181 290.662C186.387 311.934 174.912 333.399 164.716 355.492C163.533 357.947 162.187 360.365 161.492 363.026C194.484 370.761 228.149 375.456 261.91 378.007C256.682 371.197 251.144 364.624 246.175 357.621C229.435 335.144 215.084 311.032 200.34 287.238C199.482 288.288 198.809 289.464 198.181 290.662ZM396.414 371.345C394.713 373.504 392.79 375.485 391.356 377.837C393.803 377.341 396.288 377.105 398.794 377.149C429.568 374.273 460.261 369.777 490.339 362.59C481.866 343.078 471.677 324.371 461.355 305.782C458.464 300.296 455.011 295.128 452.312 289.552C434.899 317.62 416.924 345.421 396.414 371.345ZM154.357 379.256C141.898 409.867 131.258 441.78 129.025 474.964C129.106 480.643 128.921 486.321 129.106 491.992C129.942 499.815 131.354 507.926 135.835 514.574C139.34 519.993 144.671 524.297 150.963 525.997C155.969 527.868 161.359 527.151 166.579 527.306C171.06 527.328 175.385 526.049 179.703 525.021C193.279 521.59 205.908 515.35 218.189 508.769C230.234 501.848 241.961 494.358 253.199 486.188C272.579 472.317 291.108 457.226 308.603 441.055C310.133 439.236 312.425 437.92 313.505 435.82C312.019 433.484 309.697 431.835 307.856 429.802C303.752 426.001 300.462 421.432 296.388 417.601C290.162 410.518 283.966 403.398 277.932 396.152C258.501 395.139 239.114 393.179 219.793 390.695C197.811 387.996 176.021 383.73 154.357 379.256ZM469.54 384.624C439.491 390.355 409.035 394.066 378.513 395.7C377.211 395.944 375.526 395.767 374.72 397.031C372.206 400.159 369.344 402.976 366.83 406.104C363.2 409.638 360.22 413.771 356.508 417.239C352.294 421.173 348.922 425.898 344.67 429.802C342.689 432.064 340.108 433.839 338.408 436.33C345.04 442.992 352.205 449.085 359.118 455.444C376.42 470.557 394.21 485.182 413.154 498.211C429.805 509.464 447.358 519.786 466.538 526.086C475.714 529.117 485.533 530.337 495.131 529.125C505.135 527.446 513.335 519.993 517.446 510.928C521.697 501.575 523.102 491.098 522.74 480.894C523.065 471.504 521.912 462.158 520.47 452.9C516.388 429.262 509.076 406.274 499.789 384.188C498.865 382.428 498.739 379.929 496.972 378.827C487.796 380.558 478.723 382.901 469.54 384.624ZM301.179 396.891C302.798 399.752 305.645 401.608 307.627 404.196C311.176 408.736 315.664 412.418 319.398 416.803C321.616 419.08 323.45 421.831 326.067 423.679C329.55 420.041 333.136 416.5 336.707 412.943C339.435 410.244 341.669 407.087 344.449 404.44C346.756 402.2 349.062 399.915 350.734 397.15C340.375 397.756 329.986 397.512 319.612 397.549C313.453 397.793 307.346 396.669 301.179 396.891Z" fill="white"/>
<path d="M631.919 235.68C638.308 234.386 644.94 235.924 650.914 238.253C660.349 242.312 667.95 250.586 671.026 260.413C673.082 265.877 672.786 271.844 672.461 277.567C671.3 284.598 668.128 291.357 663.018 296.384C656.541 303.505 647.099 307.475 637.583 308.126C627.483 308.104 617.368 303.986 610.566 296.429C603.652 290.166 600.576 280.754 600.31 271.637C600.776 261.847 605.013 252.242 612.089 245.44C617.464 240.212 624.481 236.722 631.919 235.68Z" fill="white"/>
<path d="M330.112 260.575C332.951 260.013 335.361 258.32 338.082 257.433C332.3 266.927 319.095 271.955 308.75 267.067C305.068 265.344 301.002 263.06 299.36 259.148C303.552 260.427 307.76 261.995 312.211 261.891C318.185 261.766 324.315 262.402 330.112 260.575Z" fill="white"/>
</svg>
