<svg width="365" height="310" viewBox="0 0 365 310" fill="none" xmlns="http://www.w3.org/2000/svg">
<path d="M32.4837 0.652071C32.8314 0.543882 33.5424 0.33524 33.8901 0.227051C31.9273 8.65809 29.4389 17.12 29.3384 25.8602C29.4157 31.9806 28.9289 38.1938 30.3817 44.206C33.5115 62.2659 43.2794 78.6798 56.3626 91.338C58.8278 94.3286 62.5912 96.0365 64.7087 99.2976C67.3284 105.889 64.9637 113.069 62.1739 119.197C59.5774 124.32 56.3549 129.197 52.2514 133.246C48.5498 136.909 44.57 140.525 39.6783 142.488C38.21 143.431 37.0044 141.916 35.8453 141.206C32.2905 138.339 28.8052 135.394 25.4282 132.319C15.0343 121.801 6.22455 109.135 2.6543 94.6068C1.71924 90.542 0.359135 86.5158 0.266401 82.3041C0.00365537 74.8082 -0.0349823 67.3045 0.328225 59.8162C1.88152 48.9509 4.56307 38.217 8.767 28.0626C12.059 20.1107 17.0899 12.862 23.558 7.15889C26.3169 4.74781 28.9752 1.94262 32.4837 0.652071Z" fill="white"  stroke="white" stroke-width="0.125"/>
<path d="M207.658 0.103394C209.103 0.744802 210.587 1.30893 211.862 2.29037C220.532 9.16812 228.623 17.3828 232.781 27.8385C237.696 38.6806 240.037 50.481 241.529 62.2273C243.175 79.6303 240.153 97.7211 231.467 113.022C226.838 121.206 220.865 128.617 213.871 134.9C210.533 137.604 207.519 140.811 203.693 142.852C199.443 142.249 196.329 138.756 192.929 136.391C184.868 129.367 178.887 119.73 176.739 109.212C176.043 106.183 176.237 102.93 177.434 100.047C178.825 97.1956 181.538 95.3719 183.678 93.1231C196.592 80.944 206.089 65.0402 210.007 47.6758C211.429 39.1288 212.89 30.4041 211.576 21.7335C211.166 19.2606 210.873 16.7723 210.548 14.2839C209.984 9.47722 208.384 4.87918 207.658 0.103394Z" fill="white"  stroke="white" stroke-width="0.125"/>
<path d="M97.6214 78.904C106.864 75.6506 116.678 73.3245 126.531 74.4064C139.298 76.4079 152.002 80.3491 162.682 87.8219C165.255 89.7152 167.991 91.3921 170.564 93.2854C170.958 94.8619 169.683 96.4075 169.235 97.9066C166.615 103.432 168.145 109.63 169.39 115.294C173.725 129.189 183.052 141.638 195.649 149.065C197.898 150.448 200.401 151.321 202.959 151.924C203.825 166.097 201.669 180.208 200.71 194.303C199.868 199.62 200.68 205.146 199.041 210.331C197.635 214.373 193.06 215.539 189.675 217.402C180.131 222.549 170.209 227.919 163.37 236.582C157.211 244.024 152.914 252.911 150.441 262.215C149.429 266.373 147.52 270.33 147.365 274.673C154.359 270.028 159.112 262.764 162.605 255.276C165.58 249.055 169.413 243.19 174.405 238.391C177.465 235.508 180.556 232.394 184.598 230.918C184.683 235.979 184.698 241.041 184.799 246.103C184.783 248.916 184.899 251.891 183.593 254.48C181.77 258.39 178.076 260.863 175.185 263.908C169.846 269.387 164.22 274.595 159.166 280.345C152.157 287.509 144.9 294.417 137.999 301.681C134.947 304.85 130.781 306.596 126.771 308.219C118.61 310.901 109.507 307.269 103.68 301.372C94.4453 291.542 84.5305 282.385 75.4503 272.408C71.3082 268.313 67.2202 264.155 63.0549 260.075C58.48 255.848 56.7876 249.078 57.8154 243.058C58.3409 239.117 58.2173 235.129 58.4723 231.173C65.1337 234.156 70.3499 239.673 74.5693 245.516C78.4332 250.964 80.852 257.239 84.0591 263.065C86.8334 267.803 90.5195 272.246 95.4653 274.812C92.4747 262.092 88.8735 248.985 80.6975 238.506C74.2216 229.65 64.8941 223.445 55.2189 218.553C51.2623 216.127 46.2546 214.79 43.6349 210.679C41.332 203.94 42.4217 196.645 41.2161 189.705C41.3861 184.242 40.0337 178.886 40.3197 173.431C40.3506 170.316 39.4078 167.295 39.4696 164.188C39.5083 160.054 39.4619 155.919 39.5623 151.785C47.3597 149.297 53.8665 143.972 59.4074 138.099C64.8246 132.581 68.7117 125.781 71.6173 118.664C74.5153 111.562 75.8676 103.123 72.5138 95.9361C72.0964 94.9392 71.625 93.525 72.8847 92.9068C80.7361 87.6287 88.4021 81.601 97.6214 78.904ZM54.593 171.924C55.2575 174.961 56.1076 177.975 57.4136 180.811C59.7938 186.282 62.3903 191.892 66.8338 196.027C72.676 202.41 81.7485 206.15 90.3882 204.465C95.5813 203.337 100.272 200.323 103.726 196.313C104.561 195.277 105.519 194.141 105.457 192.727C105.859 189.358 102.104 187.75 99.6075 186.506C84.9401 180.702 69.8399 175.95 54.593 171.924ZM151.546 183.229C147.103 184.93 142.257 186.228 138.633 189.473C136.84 190.973 137.257 193.732 138.563 195.408C142.798 200.602 148.98 204.589 155.835 204.836C163.401 205.625 170.495 201.568 175.703 196.421C182.504 189.929 185.896 180.826 188.261 171.931C175.757 174.729 163.679 179.157 151.546 183.229Z" fill="white"  stroke="white" stroke-opacity="0.6" stroke-width="0.125"/>
<path d="M275.122 104.259C278.313 103.44 281.636 103.772 284.897 103.749C307.833 103.741 330.77 103.757 353.706 103.733C356.573 103.741 359.687 104.522 361.41 107.002C363.798 109.8 363.087 113.671 363.219 117.048C363.188 120.341 363.675 124.22 360.985 126.685C358.373 129.691 354.115 128.965 350.584 128.996C326.102 128.973 301.62 128.973 277.146 128.996C274.812 129.096 272.417 128.146 271.142 126.129C268.367 122.388 269.357 117.497 269.21 113.161C269.086 109.421 271.366 105.271 275.122 104.259Z" fill="white"  stroke="white" stroke-width="0.125"/>
<path d="M241.081 189.157C242.247 188.84 243.461 188.739 244.674 188.708C281.536 188.685 318.405 188.693 355.267 188.693C358.806 188.77 362.871 190.694 363.814 194.381C364.262 197.688 363.945 201.042 364.053 204.373C363.991 206.629 364.316 209.233 362.639 211.042C360.738 213.553 357.554 214.689 354.486 214.643C319.696 214.612 284.913 214.635 250.122 214.635C246.745 214.558 243.183 215.091 239.983 213.739C237.449 212.355 234.937 209.867 235.2 206.745C235.269 202.626 234.968 198.484 235.377 194.381C236.39 191.946 238.561 189.937 241.081 189.157Z" fill="white"  stroke="white" stroke-width="0.125"/>
<path d="M217.982 268.931C221.421 268.096 224.976 268.344 228.477 268.328C270.485 268.382 312.486 268.313 354.486 268.367C359.61 268.143 364.331 272.532 363.968 277.748C363.682 282.54 365.382 288.668 360.908 292.029C357.925 294.896 353.574 294.247 349.811 294.263C307.037 294.247 264.264 294.247 221.491 294.263C217.464 294.332 213.322 291.743 212.194 287.787C211.8 284.201 212.024 280.577 212.016 276.976C211.823 273.313 214.682 270.098 217.982 268.931Z" fill="white"  stroke="white" stroke-width="0.125"/>
</svg>
