<svg width="64" height="64" viewBox="0 0 64 64" fill="none" xmlns="http://www.w3.org/2000/svg">
<path d="M39.4295 0.777568C32.9902 -0.532779 26.0755 -0.287568 19.9735 2.28715C8.15267 6.9385 -0.356468 19.2144 0.0114937 31.996C-0.364136 46.2259 10.1841 59.6665 23.9751 63.0229C30.9357 64.7163 38.5633 64.2642 45.1099 61.2298C55.2136 56.816 62.6112 46.793 63.8224 35.8351C64.2823 30.6857 63.9144 25.36 61.9442 20.54C58.2876 10.8006 49.5561 3.16071 39.4295 0.777568ZM42.7488 14.6167C38.3256 19.7967 33.9867 25.0765 29.3489 30.0496C25.4699 30.5247 21.5373 30.1339 17.6354 30.3178C21.3687 25.996 25.1326 21.6971 28.8582 17.3676C32.1316 13.0611 38.1263 14.9155 42.7488 14.6167ZM29.3489 33.9424C33.9867 38.9232 38.3256 44.1952 42.7488 49.3753C39.4755 49.4596 36.1792 49.5822 32.9135 49.2297C30.836 49.0152 29.4485 47.2527 28.1453 45.8121C24.688 41.7278 21.1234 37.7355 17.6354 33.6818C21.5373 33.8504 25.4699 33.4749 29.3489 33.9424Z" fill="white"/>
</svg>
