<svg width="199" height="199" viewBox="0 0 199 199" fill="none" xmlns="http://www.w3.org/2000/svg">
<circle cx="99.5" cy="99.5" r="98" stroke="white" stroke-opacity="0.3" stroke-width="3"/>
<path d="M49.0368 46C59.7333 52.1206 70.457 58.1946 81.1185 64.3813C81.1224 76.3852 81.1107 88.393 81.1224 100.401C70.4298 94.2879 59.745 88.1634 49.0485 82.0584C48.9706 70.0389 49.0018 58.0195 49.0368 46Z" fill="white" fill-opacity="0.4"/>
<path d="M83.0057 65.4474C93.7022 71.5292 104.387 77.6342 115.037 83.7899C115.072 95.8015 115.025 107.809 115.056 119.817C104.375 113.708 93.6827 107.607 83.0135 101.471C82.9823 89.463 83.0018 77.4552 83.0057 65.4474Z" fill="white" fill-opacity="0.4"/>
<path d="M140.018 70.4475C142.862 68.8522 145.636 67.1323 148.554 65.6615C148.671 75.7004 148.543 85.7393 148.613 95.7743C148.64 97.6654 148.582 99.5564 148.523 101.447C137.909 107.393 127.469 113.65 116.835 119.556C116.761 107.626 116.823 95.6965 116.804 83.7666C124.496 79.2452 132.286 74.8989 140.018 70.4475Z" fill="white" fill-opacity="0.4"/>
<path d="M83.0054 103.553C92.4607 108.782 101.76 114.292 111.184 119.58C112.492 120.311 113.76 121.113 115.048 121.883C115.048 133.922 115.048 145.961 115.048 158C104.363 151.883 93.663 145.794 82.9977 139.638C83.0016 127.607 82.9899 115.58 83.0054 103.553Z" fill="white" fill-opacity="0.4"/>
</svg>
