<svg width="199" height="199" viewBox="0 0 199 199" fill="none" xmlns="http://www.w3.org/2000/svg">
<circle cx="99.5" cy="99.5" r="98" stroke="white" stroke-opacity="0.3" stroke-width="3"/>
<path d="M92.721 62.0034C96.4836 62 100.243 62.0034 104.002 62C103.985 65.7829 104.056 69.5691 103.965 73.3486C100.219 73.3082 96.4702 73.3452 92.7243 73.3318C92.7176 69.5556 92.7176 65.7795 92.721 62.0034Z" fill="white" fill-opacity="0.4"/>
<path d="M64.6323 76.5189C68.395 76.5156 72.1543 76.5189 75.917 76.5156C75.9237 80.2782 75.9203 84.0409 75.917 87.8036C72.1543 87.8002 68.3916 87.8069 64.6323 87.8002C64.6357 84.0409 64.629 80.2816 64.6323 76.5189Z" fill="white" fill-opacity="0.4"/>
<path d="M78.6362 76.5156C82.4696 76.5223 86.2995 76.5156 90.1329 76.5189C90.079 80.2782 90.0185 84.0409 89.9613 87.8002C86.1885 87.8069 82.4123 87.8002 78.6362 87.8036C78.6328 84.0409 78.6295 80.2782 78.6362 76.5156Z" fill="white" fill-opacity="0.4"/>
<path d="M92.7278 76.5189C96.4939 76.5425 100.263 76.4684 104.029 76.556C103.975 80.3052 104.026 84.0544 104.002 87.8036C100.243 87.8036 96.4838 87.807 92.7245 87.8036C92.7177 84.0409 92.711 80.2782 92.7278 76.5189Z" fill="white" fill-opacity="0.4"/>
<path d="M131.263 102.255C127.204 96.3621 127.75 87.7699 132.7 82.5567C134.09 83.6471 135.578 84.6332 136.8 85.9222C139.186 88.3858 140.794 91.5797 141.377 94.9587C146.311 93.7538 151.864 94.4202 156 97.4997C154.842 99.4416 153.796 101.525 152.012 102.992C148.367 106.183 143.282 106.96 138.593 106.772C135.198 114.839 130.139 122.27 123.502 128.015C115.014 135.46 104.161 139.868 93.0543 141.504C84.314 142.729 75.1732 143.019 66.6887 140.222C59.5234 137.943 53.0616 133.339 48.8681 127.063C46.2969 122.943 44.6545 118.242 44.1867 113.399C43.9847 110.645 43.7491 107.781 44.6477 105.123C69.6705 105.126 94.69 105.126 119.713 105.126C122.314 105.136 124.939 104.816 127.42 104.002C128.726 103.484 129.974 102.821 131.263 102.255ZM65.5679 114.876C63.2255 115.28 61.2264 117.185 60.7317 119.514C60.2437 121.543 61.0177 123.771 62.5558 125.158C64.0366 126.534 66.2309 127.083 68.183 126.554C70.2629 126.033 71.986 124.326 72.5211 122.25C73.1404 120.076 72.2856 117.619 70.5523 116.199C69.196 115.044 67.318 114.556 65.5679 114.876Z" fill="white" fill-opacity="0.4"/>
<path d="M50.726 90.6946C54.4853 90.7047 58.2446 90.6946 62.0039 90.6979C62.0072 94.4606 62.0005 98.2199 62.0072 101.979C58.2446 101.989 54.4819 101.983 50.7192 101.983C50.7226 98.2199 50.7091 94.4573 50.726 90.6946Z" fill="white" fill-opacity="0.4"/>
<path d="M64.6356 90.6979C68.3949 90.6946 72.1543 90.7013 75.9136 90.6979C75.9237 94.4572 75.9169 98.2199 75.9169 101.983C72.1543 101.983 68.3916 101.989 64.6289 101.979C64.6356 98.2199 64.6289 94.4606 64.6356 90.6979Z" fill="white" fill-opacity="0.4"/>
<path d="M78.6362 90.6979C82.4763 90.7316 86.3197 90.6306 90.1565 90.7484C90.0488 94.4909 90.0319 98.2368 89.9646 101.979C86.1885 101.989 82.4123 101.979 78.6362 101.983C78.6328 98.2199 78.6295 94.4572 78.6362 90.6979Z" fill="white" fill-opacity="0.4"/>
<path d="M92.7445 90.6912C96.4971 90.7114 100.253 90.6845 104.006 90.7047C104.002 94.464 104.012 98.2233 104.002 101.983C100.243 101.983 96.4836 101.986 92.721 101.983C92.7311 98.2199 92.6907 94.4539 92.7445 90.6912Z" fill="white" fill-opacity="0.4"/>
<path d="M106.638 90.6979C110.397 90.6979 114.157 90.6979 117.916 90.6979C117.926 94.4572 117.916 98.2199 117.923 101.979C114.16 101.986 110.397 101.986 106.635 101.979C106.638 98.2199 106.628 94.4572 106.638 90.6979Z" fill="white" fill-opacity="0.4"/>
</svg>
