<svg width="199" height="199" viewBox="0 0 199 199" fill="none" xmlns="http://www.w3.org/2000/svg">
<circle cx="99.5" cy="99.5" r="98" stroke="white" stroke-opacity="0.3" stroke-width="3"/>
<path d="M60.1306 45.3552C61.4865 42.1188 66.6075 42.3917 67.8484 45.5769C68.9016 49.2653 70.33 52.8342 71.4429 56.5098C72.6155 60.5051 74.1974 64.3725 75.3188 68.3849C76.2526 71.8984 77.7195 75.2499 78.6703 78.7592C92.9888 78.7677 107.311 78.7635 121.63 78.7592C122.402 76.0644 123.344 73.4164 124.286 70.7728C125.378 66.7305 126.768 62.7821 128.141 58.8336C129.109 55.4864 130.29 52.2074 131.441 48.9199C132.043 47.0011 132.256 44.5365 134.324 43.5814C136.532 42.17 139.713 43.4705 140.43 45.9521C145.871 60.1256 151.371 74.2778 156.697 88.4981C159.115 95.0263 158.603 102.365 156.104 108.79C153.993 114.299 150.011 118.96 145.21 122.333C131.416 132.694 117.554 142.975 103.853 153.464C102.787 154.283 101.551 155.067 100.148 154.995C98.7409 155.072 97.5086 154.283 96.4426 153.464C82.8234 143.034 69.0423 132.818 55.3336 122.512C52.1185 120.231 49.1636 117.485 47.0146 114.159C43.6247 109.238 42.0982 103.213 42.0001 97.2904C41.9788 91.1077 44.7845 85.4707 46.8611 79.7953C51.3297 68.3338 55.6022 56.7954 60.1306 45.3552Z" fill="white" fill-opacity="0.3"/>
</svg>
