<svg width="199" height="199" viewBox="0 0 199 199" fill="none" xmlns="http://www.w3.org/2000/svg">
<circle cx="99.5" cy="99.5" r="98" stroke="white" stroke-opacity="0.3" stroke-width="3"/>
<path d="M137.67 73.1825C141.871 72.734 146.331 73.0279 150.125 75.0179C151.584 75.7964 151.538 77.6111 151.414 79.034C151.476 79.7918 150.538 80.6116 149.816 80.1115C146.264 78.5236 142.268 77.6884 138.412 78.5442C136.773 78.8587 135.123 79.9413 134.731 81.6581C134.102 83.4625 135.309 85.3855 136.896 86.231C140.995 88.4221 145.924 88.685 149.801 91.3504C153.75 94.1447 154.245 100.197 151.564 104.028C150.512 105.744 148.8 106.93 147.011 107.786C142.99 109.59 138.376 109.59 134.128 108.719C132.014 108.193 129.751 107.724 128.039 106.281C127.539 104.749 127.807 103.1 127.936 101.527C130.339 101.775 132.396 103.306 134.819 103.528C138.226 104.064 142.268 104.554 145.197 102.342C146.898 101.249 146.661 99.0578 146.403 97.3256C145.15 95.2995 142.686 94.6911 140.567 94.0106C137.34 92.9125 133.731 92.3248 131.153 89.9069C128.797 87.7106 127.431 84.2204 128.338 81.0498C129.23 76.6831 133.499 73.8682 137.67 73.1825Z" fill="white" fill-opacity="0.4"/>
<path d="M53.3317 74.291C58.2861 72.7959 63.9211 72.3319 68.7775 74.3838C72.6802 75.9201 74.4331 80.2713 74.6496 84.1895C74.7579 89.3346 74.531 94.4901 74.7733 99.6353C74.8403 101.703 76.1344 103.414 76.7324 105.322C75.9488 107.044 73.8402 107.647 72.3863 108.73C70.6386 107.559 69.4735 105.744 68.726 103.811C66.1276 107.033 62.1476 109.049 58.0026 109.147C54.6825 109.358 51.0891 108.291 48.9651 105.61C46.7791 103.182 46.5368 99.6817 46.9596 96.5884C47.604 92.8249 50.687 89.8244 54.2597 88.716C58.7914 87.2157 63.5963 88.2623 68.1949 88.8294C68.1073 85.6743 68.7105 81.6221 65.6894 79.5702C62.395 77.838 58.4202 78.3071 54.9351 79.1784C52.9502 79.6166 51.1561 80.8951 49.0733 80.8023C49.0939 79.3897 48.8413 77.9462 49.1558 76.5542C50.1457 75.2344 51.8779 74.8787 53.3317 74.291ZM58.2346 92.8558C54.1875 93.4229 52.28 98.4289 54.3577 101.759C55.827 104.131 59.0285 104.404 61.4928 103.703C64.9418 103.182 68.2929 100.305 68.164 96.6038C68.0661 95.5521 68.4682 94.2994 67.932 93.3611C64.7614 92.6805 61.4516 92.33 58.2346 92.8558Z" fill="white" fill-opacity="0.4"/>
<path d="M78.3201 74.4044C78.8666 73.6465 79.8461 73.7754 80.6555 73.7445C82.0372 73.7548 83.6044 73.6053 84.7747 74.4766C85.5326 75.9923 85.7646 77.6936 86.208 79.3124C88.1206 86.6074 89.8683 93.9539 91.8223 101.223C93.7607 92.6754 95.8074 84.1482 97.8284 75.6159C98.0501 73.7393 100.36 73.7393 101.803 73.7393C103.144 73.7703 105.165 73.8218 105.397 75.5231C106.954 82.0757 108.495 88.6438 110.042 95.2015C110.459 97.3823 111.243 99.5012 111.377 101.734C113.908 93.062 115.867 84.2101 118.296 75.5077C118.754 73.4506 121.337 73.76 122.951 73.7497C123.874 73.6929 125.642 74.0951 125.07 75.3788C122.059 85.2721 118.899 95.1191 115.872 105.002C115.579 106.049 115.254 107.111 114.625 108.013C112.619 108.441 110.521 108.307 108.49 108.131C107.65 107.683 107.629 106.605 107.351 105.811C105.479 97.7432 103.391 89.7213 101.618 81.6272C99.4781 89.8038 97.6634 98.0886 95.6373 106.306C95.3898 106.946 95.3228 107.838 94.5804 108.116C92.5234 108.322 90.4509 108.245 88.399 108.085C84.9139 98.0164 82.1609 87.7003 78.9233 77.5492C78.5985 76.5336 78.2479 75.487 78.3201 74.4044Z" fill="white" fill-opacity="0.4"/>
<path d="M143.398 116.942C146.692 116.262 150.1 115.756 153.44 116.432C155.281 116.7 158.085 116.942 157.998 119.432V121.067C157.456 126.531 155.42 132.017 151.62 136.069C150.775 136.837 149.878 138.1 148.584 137.497C149.378 134.007 151.239 130.826 151.971 127.294C152.27 125.511 153.208 123.371 151.899 121.778C149.734 120.412 147.006 121.097 144.588 120.938C141.774 120.773 139.01 121.644 136.206 121.453C136.056 120.726 136.283 120.175 136.891 119.798C138.783 118.329 141.103 117.535 143.398 116.942Z" fill="white" fill-opacity="0.4"/>
<path d="M42 118.458C44.0106 118.386 45.547 119.809 47.2534 120.639C59.3945 127.067 72.7163 131.249 86.337 132.996C106.088 135.672 126.493 132.785 144.862 125.093C145.939 124.474 147.419 124.784 147.878 126.021C148.141 127.377 146.8 128.14 145.883 128.825C134.412 136.677 120.688 140.75 106.949 142.121C103.675 142.07 100.417 142.905 97.1583 142.333C76.8922 141.859 56.8838 133.852 42 120.072V118.458Z" fill="white" fill-opacity="0.4"/>
</svg>
