<svg width="199" height="199" viewBox="0 0 199 199" fill="none" xmlns="http://www.w3.org/2000/svg">
<circle cx="99.5" cy="99.5" r="98" stroke="white" stroke-opacity="0.3" stroke-width="3"/>
<path d="M95.5543 44.8689C97.0214 44.1681 98.4231 43.1682 100.082 43C101.647 43.0561 102.979 43.9999 104.348 44.654C116.925 51.0878 129.494 57.5309 142.081 63.932C143.716 64.6749 145.511 65.7074 145.74 67.6885C149.192 83.4389 152.739 99.1752 156.135 114.94V115.038C155.902 116.865 154.496 118.154 153.435 119.542C144.987 130.115 136.54 140.684 128.102 151.262C126.873 152.813 125.681 154.729 123.523 155H75.7577C74.0056 154.164 72.9824 152.463 71.7956 151.015C64.0068 141.221 56.2041 131.438 48.4153 121.64C46.9342 119.743 45.341 117.93 44 115.93V113.949C47.565 98.4603 51.0692 82.9576 54.6389 67.4736C54.9005 66.0719 55.9424 65.0206 57.2133 64.4646C69.9967 57.9421 82.7755 51.4102 95.5543 44.8689ZM96.6523 65.7775C96.4514 67.6278 96.6056 69.492 96.5682 71.3469C89.7466 72.1132 83.182 75.2016 78.4723 80.243C77.0987 79.145 75.7998 77.9442 74.37 76.9163C72.1694 75.4025 68.7773 77.6218 69.1324 80.2477C69.3379 83.0604 72.5338 83.8267 74.37 85.3872C70.7163 91.2183 69.0576 98.2828 69.9594 105.123C67.8942 105.866 65.4412 105.903 63.7405 107.422C61.8576 109.16 62.9649 112.786 65.5067 113.145C67.6092 113.421 69.6043 112.374 71.6461 112.015C73.2767 115.729 75.2297 119.388 78.192 122.228C79.8039 124.111 81.8504 125.518 83.8408 126.971C82.9764 129.003 81.8644 130.933 81.1636 133.031C80.6636 135.923 84.3174 138.259 86.6909 136.488C88.3916 134.722 89.0177 132.227 90.2092 130.125C92.0968 130.564 93.947 131.167 95.844 131.559C98.6427 131.937 101.493 131.928 104.292 131.568C106.226 131.19 108.104 130.578 110.02 130.115C111.183 132.208 111.837 134.638 113.454 136.446C115.776 138.282 119.561 135.993 119.056 133.082C118.407 130.938 117.168 129.022 116.285 126.971C121.691 123.462 125.929 118.271 128.26 112.262C130.639 112.636 133.003 113.86 135.437 113.225C137.974 112.332 138.184 108.403 135.89 107.076C134.166 106.212 132.199 106.025 130.363 105.478C131.251 98.6379 129.601 91.578 125.962 85.7376C127.751 84.0556 130.816 83.0604 131.008 80.243C131.195 77.7573 128.363 75.8417 126.116 76.8789C124.485 77.7807 123.158 79.1357 121.663 80.2383C116.949 75.1782 110.403 72.0805 103.567 71.2581C103.53 69.4453 103.679 67.6231 103.483 65.8196C103.329 64.1329 101.778 62.7031 100.072 62.7499C98.3764 62.6985 96.8392 64.1095 96.6523 65.7775Z" fill="white" fill-opacity="0.4"/>
<path d="M84.0884 84.4387C87.5365 81.2289 91.9192 79.1637 96.5541 78.3741C96.5775 83.6678 96.5541 88.9615 96.5681 94.2553C92.4051 90.9847 88.2374 87.7234 84.0884 84.4387Z" fill="white" fill-opacity="0.4"/>
<path d="M103.581 78.3694C108.216 79.1684 112.608 81.2288 116.047 84.4527C111.875 87.7047 107.735 90.9986 103.567 94.2552C103.581 88.9615 103.558 83.6631 103.581 78.3694Z" fill="white" fill-opacity="0.4"/>
<path d="M108.118 99.8714C112.258 96.5914 116.421 93.3395 120.565 90.0595C122.864 94.1384 124.06 98.9229 123.462 103.6C118.341 102.385 113.234 101.1 108.118 99.8714Z" fill="white" fill-opacity="0.4"/>
<path d="M76.6781 103.605C76.5239 98.9182 77.407 94.1478 79.7946 90.0642C83.8688 93.2928 87.9524 96.5073 92.0127 99.7593C86.9012 101.025 81.7943 102.338 76.6781 103.605Z" fill="white" fill-opacity="0.4"/>
<path d="M78.5239 110.379C83.57 109.141 88.6068 107.88 93.6529 106.656C91.4055 111.328 89.1488 115.991 86.892 120.654C83.2149 118.079 80.3087 114.496 78.5239 110.379Z" fill="white" fill-opacity="0.4"/>
<path d="M106.483 106.656C111.524 107.866 116.547 109.16 121.588 110.361C119.855 114.505 116.912 118.07 113.244 120.654C110.996 115.986 108.716 111.333 106.483 106.656Z" fill="white" fill-opacity="0.4"/>
<path d="M100.059 109.674C102.343 114.342 104.605 119.019 106.885 123.691C102.465 125.05 97.671 125.05 93.251 123.691C95.5124 119.014 97.8018 114.351 100.059 109.674Z" fill="white" fill-opacity="0.4"/>
</svg>
