<svg width="199" height="199" viewBox="0 0 199 199" fill="none" xmlns="http://www.w3.org/2000/svg">
<circle cx="99.5" cy="99.5" r="98" stroke="white" stroke-opacity="0.3" stroke-width="3"/>
<path d="M91.8047 45.3786C94.8378 44.2801 98.0268 43.7284 101.191 43.1718C102.901 43.0703 104.62 43.2015 106.329 43.0258C106.988 42.9466 107.643 43.0728 108.304 43.0951C110.466 43.2015 112.67 42.9268 114.781 43.5453C118.813 44.1045 122.769 45.2969 126.344 47.2612C128.402 48.5255 130.369 49.948 132.118 51.6179C133.701 52.9168 135.119 54.3987 136.445 55.9548C137.964 57.5084 139.293 59.2378 140.495 61.0462C141.168 62.0185 141.433 63.1986 142.026 64.2179C143.612 67.1495 144.253 70.4498 144.871 73.6882C145.104 74.5813 145.299 75.4918 145.297 76.4195C145.307 77.8371 145.846 79.1928 145.792 80.6154C145.802 84.5663 145.831 88.5197 145.772 92.4706C145.577 94.0936 145.235 95.7017 145.248 97.3469C144.513 101.233 144.02 105.179 142.771 108.952C142.143 111.332 141.64 113.796 140.418 115.963C139.441 117.893 138.053 119.62 137.417 121.715C137.247 122.398 137.808 122.97 138.179 123.482C140 125.548 142.281 127.136 144.273 129.026C146.153 130.664 148.236 132.175 149.634 134.276C150.473 135.414 150.324 136.886 150.205 138.209C149.807 139.79 149.466 141.398 148.817 142.903C147.736 145.906 146.875 148.981 146.066 152.069C145.735 153.021 145.596 154.08 144.985 154.909C142.586 155.094 140.156 154.924 137.746 154.981C110.285 154.983 82.8242 154.978 55.3656 154.983C54.6036 154.953 53.8169 155.082 53.0722 154.901C52.3424 154.372 52.2978 153.375 51.9441 152.61C51.0287 149.704 49.6631 146.943 49.0619 143.944C49.0099 142.757 48.8071 141.418 49.5963 140.414C50.9644 138.402 53.5744 137.992 55.4522 136.634C57.8247 134.924 60.3383 133.435 62.837 131.926C64.5218 131.079 66.1175 130.078 67.7404 129.125C69.3608 128.093 71.152 127.329 72.6661 126.129C73.3093 125.59 74.0787 124.872 73.7522 123.94C73.3291 122.757 72.8071 121.594 72.0773 120.565C71.1644 119.296 70.7265 117.779 70.1401 116.349C69.6701 115.261 69.9843 113.952 69.3213 112.935C66.4638 112.124 63.6658 110.706 61.8152 108.314C59.94 106.157 58.9627 103.423 58.082 100.749C57.8668 99.4052 57.3794 98.0965 57.4462 96.7209C57.4536 95.4741 57.4412 94.2272 57.4487 92.9828C57.4363 92.0699 57.8692 91.2361 57.9954 90.343C58.2329 88.9007 59.5169 87.9408 59.9078 86.5578C59.9746 85.2664 59.6554 83.9824 59.2497 82.7652C59.1062 81.5654 59.2373 80.3482 59.1978 79.1433C59.2324 78.1637 59.0963 77.1617 59.3041 76.1968C59.366 76.1375 59.4847 76.0212 59.5441 75.9618C59.7618 78.2305 59.6554 80.5189 59.6233 82.7949L59.7544 82.7331C59.6901 80.0513 59.7569 77.3695 59.6728 74.6877C59.5738 73.1266 60.3407 71.714 60.8999 70.3063C61.7286 68.4211 62.9458 66.6077 64.7197 65.4994C65.1971 65.1604 65.7736 64.8759 66.0235 64.3119C66.5504 63.2308 66.8102 62.0333 67.4138 60.9869C69.3262 57.788 72.2727 55.3635 75.427 53.4561C77.9381 51.9865 80.5036 50.616 83.0197 49.1563C85.7658 47.5086 88.8706 46.6205 91.8047 45.3786ZM100.711 48.0282C98.3608 48.8223 96.2035 50.0766 94.0264 51.2493C91.8097 52.6322 89.5287 53.9336 87.5272 55.6233C84.9271 57.459 82.7822 59.876 81.0306 62.5182C80.6966 63.2035 80.0212 63.9259 80.3527 64.7349C80.6768 65.7394 81.0479 66.7388 81.1963 67.7878C81.2656 68.8516 81.2186 69.9204 81.2236 70.9891C81.2384 72.0035 80.7485 72.9436 80.7485 73.9579C80.7956 74.8955 80.2834 75.7218 80.2067 76.6397C79.7466 78.8564 79.2493 81.0854 79.0836 83.3491C79.1677 85.2986 79.6971 87.1986 80.1969 89.0714C80.4096 90.7166 81.1196 92.3915 80.6397 94.0515C79.4942 95.2489 77.708 95.4592 76.1321 95.3899C75.6175 95.338 74.7244 95.5631 74.5884 94.8605C74.3533 93.1089 73.7373 91.4093 72.8071 89.9101C71.862 88.6583 70.348 87.6959 68.7226 87.921C67.117 87.7404 65.6177 88.4653 64.3189 89.3312C62.644 90.583 61.5332 92.4731 61.0112 94.4746C60.8974 95.5483 60.9221 96.6368 60.9914 97.7105C61.7064 101.565 63.6633 105.417 67.0947 107.51C68.2847 108.294 69.7913 108.359 71.1495 108.084C72.2975 107.557 73.1411 106.545 74.2865 106.011C74.8382 105.86 75.427 105.899 75.9861 106.011C76.7753 107.74 75.1401 109.118 74.1084 110.271C73.1485 111.211 73.5938 112.609 73.8734 113.739C74.5438 117.21 75.8427 120.516 77.3444 123.702C78.6556 126.134 79.848 128.912 82.3591 130.342C83.6876 131.154 85.1126 131.921 86.6985 132.029C87.6386 132.428 88.6405 132.48 89.6499 132.519C90.9859 132.831 92.3416 133.066 93.7221 132.972C94.7216 133.106 95.2164 132.059 96.0501 131.72C97.6408 130.971 99.4518 131.339 101.146 131.275C100.753 130.832 100.234 130.543 99.7289 130.248C98.4672 129.504 97.4083 128.472 96.3841 127.435C95.2386 126.26 93.9917 125.169 93.0863 123.789C91.211 122.074 89.7167 119.924 88.7048 117.594C88.3783 116.54 87.7054 115.454 88.0938 114.323C88.1779 114.343 88.3461 114.383 88.4302 114.402C89.2194 115.343 89.8429 116.416 90.5826 117.398C93.6429 121.451 96.916 125.535 101.327 128.19C103.813 129.706 106.493 130.968 109.355 131.587C110.854 132.094 112.445 131.893 113.999 131.935C115.33 131.973 116.591 131.475 117.89 131.255C120.342 130.602 122.759 129.739 124.978 128.494C127.811 127.049 130.71 125.308 132.38 122.505C134.56 119.405 136.715 116.263 138.273 112.797C138.743 111.664 139.11 110.494 139.555 109.353C140.846 106.164 141.47 102.767 142.252 99.4374C142.242 98.1707 142.692 96.9733 142.788 95.7214C142.766 93.9773 143.187 92.2703 143.132 90.5236C143.454 88.3614 143.053 86.1967 143.043 84.0294C142.764 81.9983 142.85 79.9424 142.759 77.8989C142.546 75.9 142.068 73.9282 141.378 72.043C140.683 70.2395 139.134 69.0273 137.699 67.8299C135.97 66.8378 133.927 66.2935 131.94 66.7017C131.309 67.0036 130.745 67.4415 130.077 67.6641C129.446 67.1866 129.706 66.2416 129.854 65.5835C130.515 64.3836 131.698 63.4979 132.974 63.0328C133.971 62.8126 135.01 63.0229 136.022 62.8844C135.935 62.4985 135.772 62.1348 135.542 61.8181C134.491 60.3238 133.303 58.9359 132.138 57.5357C130.493 55.7148 128.815 53.847 126.653 52.6298C123.011 50.6061 119.088 49.087 115.03 48.1445C114.291 47.9267 113.524 47.8426 112.757 47.8402C111.827 47.8327 110.983 47.3182 110.048 47.3528C108.229 47.3404 106.414 47.3528 104.595 47.3478C103.264 47.2959 102 47.7808 100.711 48.0282ZM87.1537 51.0365C82.1364 52.7312 77.379 55.314 73.4281 58.8642C72.389 59.8958 71.3648 60.9621 70.5706 62.2016C70.202 62.7953 69.6701 63.3198 69.5043 64.0175C70.3183 64.0274 71.0753 63.7132 71.82 63.4287C73.4577 62.872 75.2242 62.2906 76.9609 62.6889C77.6783 62.7731 78.5022 62.8201 79.0539 62.2585C81.1469 60.3708 81.9237 57.4738 83.9474 55.5243C84.932 54.5075 86.2432 53.889 87.2229 52.8648C87.8439 52.1325 88.9473 52.1399 89.5608 51.4076C89.7909 50.992 89.4174 50.5937 88.9943 50.5887C88.3535 50.5838 87.7499 50.8337 87.1537 51.0365ZM73.9352 65.9967C70.9813 66.8131 68.3218 68.4879 66.1645 70.6477C65.1749 71.7066 64.5292 73.0376 63.9874 74.3661C63.7573 76.1177 63.3466 77.8618 63.4134 79.6381C63.3615 81.5283 63.6163 83.406 63.8389 85.2739C64.5638 85.1724 65.1551 84.6851 65.8552 84.5045C67.7181 84.0863 69.6627 84.1705 71.5206 84.5589C74.0837 85.5435 76.2781 87.6563 77.0425 90.3331C77.2355 90.8403 77.2355 91.4439 77.6066 91.8695C77.76 91.8051 78.0643 91.674 78.2177 91.6097C78.4082 91.1966 78.5071 90.7339 78.4403 90.2812C78.1039 88.2847 77.0401 86.4119 77.2231 84.3412C77.3295 82.0899 76.951 79.7693 77.5893 77.5773C77.9381 76.4121 77.5472 75.1553 77.9851 74.0074C78.4774 72.6393 78.1905 71.1623 78.2647 69.7423C78.3315 68.2826 78.2647 66.6498 77.3864 65.4425C76.1989 65.2396 75.0634 65.7121 73.9352 65.9967ZM134.582 126.483C133.946 126.988 133.382 127.579 132.717 128.046C132.121 128.524 131.416 128.932 131.059 129.635C133.345 129.499 135.122 131.478 135.552 133.578C135.705 134.479 136.094 135.332 136.158 136.25C136.245 137.509 136.653 138.729 136.636 139.998C136.744 141.834 136.247 143.627 136.156 145.456C136.148 146.23 135.49 146.871 135.644 147.663C135.995 149.135 137.709 149.894 137.652 151.522C139.087 151.589 140.525 151.507 141.962 151.552C142.388 151.519 142.855 151.621 143.258 151.438C143.813 150.696 143.862 149.728 144.174 148.882C144.461 148.147 144.493 147.353 144.654 146.591C145.067 145.498 145.129 144.318 145.463 143.199C145.638 141.309 146.66 139.493 146.18 137.566C145.111 135.223 142.63 134.15 140.918 132.381C139.055 130.612 137.358 128.665 135.384 127.015C135.131 126.814 134.889 126.587 134.582 126.483ZM75.0386 129.984C69.5761 132.284 64.4352 135.322 59.6901 138.868C57.6317 140.258 55.6154 141.718 53.6833 143.276C53.2751 143.561 53.4953 144.06 53.6437 144.424C54.5022 146.416 55.3977 148.395 56.0434 150.468C56.2389 150.941 56.4368 151.688 57.1073 151.549C69.8631 151.522 82.6238 151.562 95.3796 151.544C95.4143 150.928 95.3475 150.302 95.1223 149.726C94.5484 148.236 94.2441 146.663 93.8062 145.132C93.5489 144.318 93.6454 143.427 93.3089 142.635C92.3094 141.695 90.924 141.384 89.7464 140.738C87.9849 139.751 86.0874 139.028 84.3779 137.947C82.9825 137.071 81.4338 136.347 80.3379 135.077C78.997 133.454 77.6041 131.871 76.2063 130.3C75.9367 129.934 75.4542 129.788 75.0386 129.984ZM129.191 133.655C127.329 134.37 125.584 135.409 124.065 136.708C123.316 137.351 122.222 137.445 121.517 138.138C121.418 138.843 121.621 139.565 122.032 140.142C123.182 140.189 124.342 140.196 125.48 140.424C125.577 140.641 125.584 140.862 125.498 141.087C124.385 141.156 122.987 141.017 122.277 142.079C122.207 142.786 122.235 143.501 122.245 144.214C122.287 144.582 122.173 145.072 122.579 145.275C123.383 145.535 124.243 145.515 125.048 145.782C125.636 145.975 126.25 146.069 126.873 146.059C128.459 146.012 129.971 146.663 131.564 146.569C132.205 146.512 133.058 146.764 133.501 146.148C134.3 144.82 134.219 143.217 134.196 141.725C134.228 140.241 133.751 138.816 133.64 137.344C133.429 136.25 132.967 135.199 132.363 134.266C131.638 133.276 130.243 133.222 129.191 133.655ZM116.725 134.971C115.639 135.008 114.59 135.367 113.506 135.384C112.443 135.206 111.406 134.813 110.31 134.884C110.493 135.248 110.877 135.419 111.208 135.622C112.265 136.183 113.341 136.772 114.538 136.97C115.822 137.198 117.143 137.203 118.44 137.091C119.234 136.772 119.818 136.114 120.493 135.609C121.203 134.986 122.052 134.521 122.663 133.788C120.619 133.771 118.771 134.964 116.725 134.971ZM84.7119 134.095C84.6352 134.602 84.6426 135.171 85.0879 135.518C86.8642 137.19 89.3283 137.72 91.5771 138.454C92.0027 138.536 92.5321 138.825 92.9205 138.506C93.0986 137.589 93.351 136.69 93.591 135.79C93.5118 135.713 93.3559 135.56 93.2768 135.483C91.7503 134.959 90.1125 134.927 88.5168 134.939C87.1932 134.959 86.0107 134.244 84.7119 134.095ZM97.1782 134.828C95.9709 135.837 95.6963 137.524 95.5677 139.006C95.6369 141.109 95.34 143.254 95.8917 145.312C96.2158 148.078 97.6483 150.54 98.3855 153.199C98.7096 154.174 99.8204 154.026 100.637 153.981C102.804 153.474 104.895 152.64 106.894 151.651C109.318 150.201 111.29 148.142 113.563 146.485C114.451 145.951 114.033 144.756 114.061 143.902C113.363 143.477 112.574 143.256 111.809 142.994C111.114 142.749 110.261 142.994 109.679 142.46L109.756 142.188C110.852 142.19 111.891 141.911 112.92 141.567C113.655 141.475 113.672 140.542 113.581 139.976C112.898 139.889 112.198 139.837 111.569 139.538C110.367 139.07 109.457 138.083 108.239 137.643C106.305 136.854 104.484 135.735 102.416 135.322C101.666 134.466 100.496 134.82 99.5186 134.526C98.7442 134.387 97.8214 134.266 97.1782 134.828ZM116.567 139.583C116.114 139.8 115.659 140.075 115.379 140.503C115.201 141.606 115.787 142.628 115.891 143.709C115.879 144.169 116.267 144.558 116.725 144.568C117.46 144.622 118.289 144.637 118.9 144.152C119.701 143.516 119.936 142.395 119.751 141.428C119.644 139.976 117.878 138.954 116.567 139.583ZM117.22 147.457C116.601 147.556 115.973 147.489 115.354 147.564C114.892 147.902 114.499 148.365 114.278 148.9C114.805 149.812 115.377 150.72 116.077 151.512C117.158 151.571 118.252 151.586 119.333 151.505C119.882 151.126 120.27 150.478 120.931 150.292C121.765 150.218 122.2 151.049 122.764 151.507C123.578 151.599 124.407 151.576 125.221 151.492C125.401 150.718 125.634 149.887 125.443 149.097C124.617 148.756 123.694 148.637 122.945 148.125C122.056 147.566 121.255 146.769 120.181 146.591C119.093 146.403 118.227 147.23 117.22 147.457ZM127.722 149.246C127.487 149.983 127.44 150.79 127.682 151.532C130.038 151.554 132.393 151.547 134.748 151.534C134.763 151.44 134.793 151.25 134.81 151.153C133.335 148.961 130.085 147.747 127.722 149.246ZM111.423 150.787C111.166 151.074 110.981 151.416 110.822 151.764C111.431 151.762 112.054 151.799 112.646 151.621C112.561 151.334 112.46 151.057 112.341 150.787C112.037 150.74 111.725 150.74 111.423 150.787Z" fill="white" fill-opacity="0.3"/>
<path d="M98.7912 64.9378C100.236 64.4083 101.896 64.2723 103.356 64.819C104.123 65.2544 105.033 65.7987 105.152 66.7611C105.261 67.3845 105.112 68.0129 104.899 68.5993C103.714 68.6215 102.579 67.9536 101.364 68.1861C97.3835 68.6314 94.489 72.043 93.0664 75.5635C92.7621 75.613 92.4479 75.5957 92.1486 75.5214C91.3817 74.2572 91.7528 72.7333 92.203 71.432C93.4029 68.4929 95.914 66.2045 98.7912 64.9378Z" fill="white" fill-opacity="0.3"/>
<path d="M136.633 75.9866C137.202 75.9346 137.598 76.3502 137.786 76.8475C138.652 78.9751 139.701 81.0211 140.73 83.072C141.067 83.8736 142.026 84.497 141.831 85.4545C140.631 87.1046 138.662 88.0299 136.697 88.4084C135.535 88.537 134.236 88.5791 133.261 87.8171C132.583 87.3817 132.492 86.5034 132.413 85.7736C132.348 85.4767 132.489 85.2021 132.724 85.024C134.671 84.6826 136.801 84.9671 138.62 84.1111C137.925 81.4194 136.242 78.8811 136.633 75.9866Z" fill="white" fill-opacity="0.3"/>
<path d="M107.955 76.323C108.4 76.1004 108.635 76.803 108.865 77.0776C109.694 78.8712 110.263 80.8157 111.465 82.4164C112.307 83.4505 113.469 84.2348 114.078 85.452C114.174 86.2387 114.246 87.0848 114.011 87.8517C113.091 89.2248 111.49 90.2317 109.805 90.2094C107.715 90.2292 105.469 90.4296 103.608 89.2743C103.074 88.8636 102.606 88.2575 102.693 87.545C102.705 87.07 102.619 86.3451 103.215 86.1942C104.217 86.0606 105.253 86.1298 106.223 86.4292C107.22 86.7508 108.277 86.7112 109.311 86.6766C109.969 86.6865 110.607 86.3599 111.02 85.8528C110.083 83.8093 108.705 81.9365 108.222 79.7049C107.99 78.5991 107.532 77.4412 107.955 76.323Z" fill="white" fill-opacity="0.3"/>
<path d="M122.727 78.4704C123.58 78.4184 123.919 79.2522 124.05 79.9523C124.486 82.0403 125.817 83.7499 126.893 85.5361C128.536 87.8294 130.24 90.0906 132.091 92.2232C133.147 93.2375 133.862 94.5735 135.089 95.4122C135.785 96.0504 136.784 96.6318 136.829 97.6808C136.947 99.1132 136.195 100.407 135.856 101.763C135.577 102.945 134.308 103.364 133.4 103.965C129.951 106.206 126.005 107.71 121.925 108.227C120.641 108.213 119.35 108.299 118.071 108.183C117.101 107.653 116.633 106.56 116.364 105.541C116.193 104.086 116.121 102.48 117.027 101.233C117.133 101.275 117.348 101.357 117.455 101.399C118.202 102.592 117.888 104.291 119.117 105.209C120.166 105.729 121.386 105.837 122.519 105.555C126.091 105.142 129.147 103.096 132.405 101.758C133.402 100.615 133.538 98.6753 132.484 97.5249C130.438 95.1128 128.316 92.7526 126.487 90.1673C124.342 87.2258 122.494 83.8389 122.338 80.1255C122.314 79.5639 122.287 78.886 122.727 78.4704Z" fill="white" fill-opacity="0.3"/>
<path d="M64.6602 92.6389C65.3208 91.4514 66.6617 90.7735 67.9803 90.677C69.2371 90.8724 70.5508 91.3029 71.4439 92.2554C72.3172 93.1559 72.9431 94.2692 73.4453 95.4097C73.6482 96.3845 73.5715 97.4013 73.5492 98.3909C73.5665 98.7347 73.3241 99.0564 72.9851 99.1207C72.0203 97.9455 71.5354 96.4785 70.7413 95.1994C70.2514 94.4424 69.1876 94.6774 68.4776 94.9545C67.4905 96.805 67.9283 98.9302 67.8244 100.929C67.8566 101.3 67.6859 101.632 67.4756 101.924C66.4316 101.092 66.4489 99.5734 66.2658 98.3537C65.9195 96.9931 66.3796 95.6324 66.5701 94.289C66.5924 93.9699 66.7903 93.5245 66.4192 93.3341C65.6548 93.3439 65.1525 94.0515 64.5044 94.3632C63.9131 93.8808 64.3559 93.1436 64.6602 92.6389Z" fill="white" fill-opacity="0.3"/>
<path d="M135.604 106.943C136.574 106.397 137.544 105.766 138.674 105.617C138.001 107.478 136.816 109.103 135.527 110.583C134.451 111.651 133.308 112.713 131.918 113.358C130.357 114.002 128.699 114.635 126.98 114.425C126.727 112.963 126.611 111.421 127.019 109.979C127.752 109.9 128.506 109.929 129.216 109.694C131.433 109.002 133.61 108.141 135.604 106.943Z" fill="white" fill-opacity="0.3"/>
<path d="M107.967 108.376C110.34 109.078 112.727 109.996 115.248 109.932C116.359 109.892 117.443 110.142 118.541 110.268C120.748 110.612 122.994 110.234 125.206 110.486C125.676 111.807 125.51 113.25 125.466 114.623C123.346 114.788 121.208 114.672 119.085 114.598C116.572 114.059 113.932 113.707 111.678 112.381C110.11 111.463 108.291 110.32 107.967 108.376Z" fill="white" fill-opacity="0.3"/>
<path d="M105.206 112.651C105.471 111.951 106.369 112.136 106.955 112.166C107.831 113.259 108.338 114.684 109.513 115.543C111.898 117.247 114.818 118.017 117.7 118.314C121.045 118.418 124.397 118.259 127.739 118.376C127.937 119.318 127.071 119.984 126.465 120.555C125.54 121.391 124.241 121.332 123.108 121.639C120.894 122.198 118.59 122.082 116.329 122.025C115.003 121.79 113.672 121.483 112.403 121.038C109.637 119.773 108.385 116.802 106.414 114.682C105.904 114.096 104.993 113.549 105.206 112.651Z" fill="white" fill-opacity="0.3"/>
</svg>
