<svg width="199" height="199" viewBox="0 0 199 199" fill="none" xmlns="http://www.w3.org/2000/svg">
<circle cx="99.5" cy="99.5" r="98" stroke="white" stroke-opacity="0.3" stroke-width="3"/>
<path d="M88.8562 46.5864C93.3591 46.0951 97.8956 45.8839 102.424 46.0631C105.253 46.1479 108.076 46.3751 110.894 46.6248C113.574 46.9224 116.312 47.2152 118.795 48.3433C121.858 49.5947 124.559 51.7917 126.249 54.6512C127.452 56.6674 128.043 59.0213 128.017 61.3639C128.016 69.792 128.027 78.2217 128.012 86.6498C128.012 91.7559 124.711 96.6893 119.973 98.5983C118.261 99.2799 116.418 99.6416 114.576 99.6752C105.828 99.6752 97.0811 99.6752 88.3345 99.6752C86.5872 99.7136 84.8302 99.568 83.0924 99.8064C79.2008 100.198 75.3796 101.885 72.6801 104.754C70.4767 107.033 68.9549 109.953 68.3452 113.062C67.9196 115.003 68.0236 116.999 68.0124 118.97C68.0092 122.649 68.0188 126.328 68.0076 130.006C66.6763 130.019 65.3449 130.008 64.012 130.013C62.631 130.006 61.2261 130.026 59.8819 129.654C57.0592 129.003 54.531 127.397 52.478 125.385C50.6474 123.531 49.1032 121.394 47.9255 119.069C45.3188 114.073 44.1555 108.42 44.0259 102.813C43.8514 98.2798 44.5651 93.7289 45.9909 89.4277C47.5094 85.0576 49.8665 80.8556 53.3981 77.7977C56.0143 75.5174 59.3795 74.0085 62.8871 74.0101C75.2628 73.9957 87.6369 74.0149 100.013 74.0005C100.021 72.6707 100.021 71.3394 100.013 70.008C90.6804 69.9952 81.3498 70.0144 72.0176 70C72.0064 66.5885 72.0176 63.1769 72.0096 59.7654C72.064 57.3811 72.4369 54.8928 73.7474 52.851C74.7843 51.2701 76.3253 50.0683 78.0295 49.2762C81.4202 47.6713 85.1758 47.1064 88.8562 46.5864ZM83.2828 54.4096C81.5834 54.9168 80.1705 56.3442 79.7768 58.0868C79.2408 60.1398 80.1897 62.4424 81.9755 63.5674C83.3708 64.4699 85.2286 64.6427 86.7472 63.9514C88.1057 63.3577 89.2194 62.1672 89.6243 60.7303C90.2339 58.634 89.3523 56.173 87.4641 55.0369C86.2655 54.1744 84.6798 54.0559 83.2828 54.4096Z" fill="white" fill-opacity="0.4"/>
<path d="M132.688 74.0165C134.389 74.0021 136.092 73.9813 137.794 74.0341C140.961 74.1493 143.947 75.591 146.354 77.5913C150.207 80.8524 152.724 85.4337 154.218 90.2006C155.428 93.9002 155.972 97.7998 156.012 101.687C156.047 105.234 155.622 108.788 154.7 112.216C153.431 117.123 151.106 121.868 147.45 125.441C144.661 128.232 140.811 130.082 136.82 130.01C124.553 130.018 112.286 130.003 100.019 130.016C100.011 131.346 100.011 132.677 100.019 134.007C109.351 134.02 118.683 134.004 128.014 134.015C128.025 136.788 128.016 139.559 128.019 142.331C128.025 143.768 127.8 145.213 127.278 146.555C126.295 149.12 124.335 151.213 122.049 152.689C119.928 154.105 117.546 155.081 115.113 155.82C112.27 156.596 109.399 157.334 106.46 157.629C101.469 158.232 96.3802 158.118 91.4421 157.156C89.4339 156.828 87.4817 156.243 85.5215 155.708C82.4124 154.708 79.3448 153.383 76.7766 151.33C74.9908 149.944 73.4626 148.144 72.6625 146.011C72.2145 144.84 72.008 143.584 72.0128 142.332C72.0112 133.904 72.016 125.478 72.0096 117.05C71.9696 114.765 72.5841 112.469 73.813 110.537C76.2677 106.553 81.0026 104.298 85.6159 104.341C95.6425 104.344 105.669 104.335 115.696 104.346C121.33 104.474 126.761 101.235 129.712 96.5005C131.376 93.881 132.339 90.8407 132.605 87.7555C132.691 86.6946 132.691 85.6289 132.693 84.5664C132.688 81.0492 132.696 77.5336 132.688 74.0165ZM114.168 139.089C112.716 139.388 111.398 140.335 110.692 141.643C109.463 143.803 110.118 146.843 112.2 148.232C113.926 149.535 116.48 149.492 118.194 148.191C119.488 147.194 120.324 145.581 120.239 143.931C120.231 142.233 119.224 140.649 117.811 139.755C116.725 139.111 115.411 138.863 114.168 139.089Z" fill="white" fill-opacity="0.4"/>
</svg>
