<svg width="199" height="199" viewBox="0 0 199 199" fill="none" xmlns="http://www.w3.org/2000/svg">
<circle cx="99.5" cy="99.5" r="98" stroke="white" stroke-opacity="0.3" stroke-width="3"/>
<path d="M97.0188 46.0841C98.5273 45.9308 100.05 46.0405 101.566 46.008C102.393 45.9666 103.206 46.1468 104.032 46.1222C104.369 46.1211 104.696 46.2252 105.033 46.2285C105.712 46.2285 106.37 46.4356 107.047 46.4613C107.966 46.6001 108.894 46.6974 109.812 46.8586C110.288 47.0488 110.813 46.9817 111.296 47.154C120.806 49.1002 129.776 53.5957 137.046 60.0274C137.65 60.4997 138.159 61.0771 138.725 61.5919C139.382 62.1269 139.953 62.757 140.508 63.3926C141.334 64.1771 142.054 65.059 142.798 65.9163C147.918 71.9685 151.722 79.1231 153.877 86.7522C154.213 88.0437 154.614 89.3229 154.805 90.6468C154.917 91.3754 155.182 92.0759 155.224 92.8168C155.299 93.3696 155.434 93.9158 155.456 94.4776C155.575 95.0786 155.698 95.6829 155.661 96.3006C155.773 97.0784 155.915 97.8585 155.883 98.6486C156.046 99.8718 155.979 101.108 155.992 102.338C155.979 102.871 156.048 103.414 155.905 103.936C155.837 104.711 155.972 105.502 155.78 106.265C155.792 107.238 155.684 108.205 155.525 109.164C155.395 109.619 155.471 110.102 155.347 110.559C155.178 111.177 155.201 111.829 154.996 112.44C153.292 121.675 149.141 130.429 143.158 137.658C142.267 138.706 141.392 139.769 140.401 140.726C139.716 141.608 138.806 142.266 138.043 143.071C131.798 148.879 124.199 153.214 116.031 155.66C114.094 156.222 112.138 156.739 110.147 157.05C109.65 157.207 109.127 157.247 108.614 157.323C108.119 157.325 107.657 157.551 107.163 157.546C106.559 157.535 105.975 157.713 105.376 157.761C104.736 157.764 104.108 157.926 103.466 157.887C102.167 158.05 100.855 157.985 99.5491 157.997C98.609 157.988 97.6634 158.035 96.73 157.9C95.6142 157.875 94.5074 157.743 93.3995 157.625C92.3072 157.397 91.1926 157.317 90.0936 157.13C89.3326 156.926 88.5525 156.814 87.7815 156.66C82.6816 155.494 77.7294 153.655 73.1432 151.132C69.449 149.108 65.9797 146.67 62.8372 143.867C62.0415 143.249 61.4092 142.454 60.6291 141.819C60.3449 141.578 60.0953 141.302 59.8625 141.013C52.1215 133.122 46.847 122.854 44.8975 111.976C44.7979 111.423 44.6815 110.872 44.6524 110.31C44.3402 108.943 44.3021 107.537 44.1219 106.151C44.104 105.82 44.1331 105.489 44.0996 105.159C43.9496 104.151 44.0201 103.128 44.0033 102.113C44.0179 100.993 43.9474 99.8651 44.1074 98.7515C44.0682 97.394 44.4443 96.0701 44.4577 94.7193C44.6021 93.6293 44.808 92.5493 44.9982 91.4694C44.9993 91.0833 45.1986 90.7419 45.2411 90.3648C45.3508 89.5243 45.6115 88.7163 45.8062 87.8937C47.7132 80.5578 51.1389 73.6282 55.7878 67.6431C56.8946 66.2912 57.9734 64.9124 59.2067 63.6713C59.8267 63.096 60.3046 62.3809 60.9928 61.8762C62.4332 60.3967 64.0324 59.0862 65.6383 57.7925C68.2347 55.8038 70.9732 53.9964 73.8707 52.4766C75.0491 51.9014 76.2018 51.2668 77.415 50.7644C80.4075 49.4415 83.5165 48.3873 86.6959 47.6129C87.7221 47.304 88.792 47.1954 89.8295 46.9369C90.379 46.8172 90.9341 46.7064 91.4959 46.6728C92.4292 46.5654 93.3502 46.3057 94.2959 46.3393C94.813 46.2688 95.3278 46.1759 95.8493 46.1267C96.2387 46.1088 96.6315 46.1446 97.0188 46.0841ZM99.9363 68.5026C99.3107 68.6693 98.7131 68.9401 98.1759 69.2994C97.622 69.6777 97.2471 70.2518 96.9281 70.8292C88.6544 90.1521 80.3292 109.45 72.0644 128.776C71.9256 129.345 72.4326 129.982 73.0224 129.945C75.1521 129.941 77.2807 129.942 79.4104 129.944C80.2598 129.907 80.9794 129.261 81.2513 128.477C83.8802 122.374 86.4933 116.263 89.1166 110.159C89.9078 108.329 90.6733 106.487 91.4981 104.674C92.164 105.063 92.6956 105.646 93.3122 106.111C102.629 113.77 111.933 121.44 121.252 129.096C122.179 129.824 123.418 130.059 124.57 129.907C125.483 129.65 126.405 129.204 126.985 128.429C127.757 127.558 128.031 126.333 127.919 125.194C127.761 124.307 127.32 123.508 126.98 122.683C119.582 105.649 112.192 88.61 104.783 71.5779C104.502 70.9042 104.204 70.2025 103.65 69.7023C102.721 68.6962 101.265 68.3123 99.9363 68.5026Z" fill="white" fill-opacity="0.4"/>
<path d="M100.675 83.2807C100.777 83.3434 100.85 83.4363 100.89 83.5571C104.882 92.7049 108.838 101.866 112.82 111.017C112.834 111.09 112.866 111.235 112.88 111.308C112.712 111.38 112.606 111.183 112.484 111.108C110.892 109.755 109.253 108.457 107.653 107.111C106.558 106.23 105.496 105.305 104.384 104.447C103.424 103.573 102.364 102.815 101.395 101.952C99.7406 100.623 98.1201 99.2518 96.4738 97.9133C95.9937 97.4612 95.3972 97.1322 94.9775 96.6196C94.991 96.5603 95.0178 96.4417 95.0313 96.3824C96.4134 93.138 97.8246 89.906 99.2 86.6594C99.7249 85.5469 100.137 84.3864 100.675 83.2807Z" fill="white" fill-opacity="0.4"/>
</svg>
