<svg width="199" height="199" viewBox="0 0 199 199" fill="none" xmlns="http://www.w3.org/2000/svg">
<circle cx="99.5" cy="99.5" r="98" stroke="white" stroke-opacity="0.3" stroke-width="3"/>
<path d="M100.845 43H101.72C104.936 43.1925 108.165 44.1484 110.737 46.1369C112.745 47.6616 114.327 49.7134 115.405 51.9862C117.667 56.5844 118.324 61.7578 118.474 66.8263C118.652 70.4312 118.575 74.1259 119.737 77.5887C120.255 79.2031 121.108 80.6841 122.088 82.06C125.833 87.3209 129.552 92.6103 132.91 98.1294C134.951 101.667 137.081 105.28 137.875 109.338C138.556 113.372 138.147 117.53 137.103 121.466C138.116 122.564 139.028 123.808 139.422 125.274C139.923 126.849 139.468 128.575 140.096 130.124C140.691 131.714 142.036 132.895 143.504 133.676C144.528 134.234 145.731 134.575 146.503 135.507C147.374 136.489 147.577 137.966 147.039 139.158C146.396 140.687 144.963 141.658 143.572 142.446C140.741 143.984 137.908 145.524 135.117 147.132C132.827 148.606 130.392 149.905 128.399 151.789C127.555 152.552 126.728 153.368 125.706 153.895C124.348 154.641 122.795 154.967 121.253 155H120.817C119.697 154.897 118.558 154.705 117.558 154.162C115.972 153.296 114.92 151.741 114.075 150.19C110.14 149.326 106.113 148.798 102.079 148.801C97.4679 148.895 92.872 149.448 88.3548 150.376C87.902 151.283 87.2982 152.126 86.4976 152.762C84.8985 154.099 82.6673 154.493 80.6504 154.121C77.6076 153.672 74.7617 152.471 71.8654 151.496C69.4526 150.688 67.077 149.73 64.5701 149.251C61.2998 148.588 57.8676 148.527 54.7635 147.191C53.6895 146.701 52.5148 146.044 52.1232 144.85C51.7426 143.686 52.3354 142.533 52.6635 141.435C53.112 139.928 53.7135 138.432 53.7682 136.842C53.8863 134.663 52.4513 132.677 52.8648 130.48C53.0354 129.286 53.9695 128.343 55.0545 127.897C56.916 127.151 58.9635 127 60.8076 126.195C61.921 125.716 62.982 125.051 63.7651 124.11C64.5548 123.178 64.9092 121.962 65.7032 121.03C66.1735 120.422 66.7795 119.943 67.4204 119.53C67.0179 118.049 66.7729 116.489 67.0726 114.964C67.3395 113.158 68.3785 111.615 69.0763 109.964C70.2029 107.295 71.0407 104.517 72.082 101.818C73.1451 99.0219 74.1098 96.1584 75.7263 93.6187C78.0079 90.1931 80.5738 86.9709 83.0107 83.6569C83.481 82.9525 84.0082 82.2722 84.3582 81.4978C84.7957 80.3231 84.8526 79.0566 84.9532 77.8206C85.0998 75.0972 84.9904 72.3694 84.8395 69.6481C84.4829 64.9559 83.9273 60.2113 84.6142 55.5191C85.1063 52.2116 86.4517 48.8144 89.2057 46.7516C92.5438 44.2797 96.722 43.0831 100.845 43ZM103.05 57.7569C101.379 58.2119 100.084 59.5747 99.4301 61.1431C98.5988 63.0397 98.6579 65.2381 99.3667 67.1631C100.178 67.4912 100.996 67.8062 101.808 68.1344C101.047 66.4675 101.178 64.2625 102.578 62.9697C103.383 62.1822 104.75 62.1166 105.61 62.8516C107.607 64.4988 107.423 68.1016 105.227 69.5037C105.686 69.7159 106.15 69.9194 106.616 70.1162C110.188 67.7166 110.567 61.9744 107.506 59.0103C106.36 57.8706 104.628 57.3281 103.05 57.7569ZM87.4688 60.3162C86.2592 61.9963 85.9201 64.1816 86.1935 66.2028C86.456 68.0556 87.3507 69.9522 89.0438 70.8972C89.6192 70.4225 90.1726 69.9216 90.7479 69.4447C89.3917 69.6262 88.4445 68.41 88.0529 67.2703C87.5498 65.8441 87.5695 64.0219 88.7223 62.9084C89.361 62.3091 90.3607 62.5059 90.9426 63.0834C92.347 64.3719 92.7035 66.6053 91.9598 68.3334C92.6926 67.6444 93.5282 67.0669 94.4492 66.6578C94.7445 64.7547 94.6198 62.7313 93.6813 61.0163C93.0448 59.8109 91.8985 58.7172 90.4679 58.6603C89.2517 58.6012 88.1535 59.3625 87.4688 60.3162ZM95.6107 69.1581C93.0885 70.2344 91.2729 72.3847 89.0788 73.9619C88.3263 74.3731 88.6895 75.3269 89.1029 75.8563C90.3913 77.5187 92.1982 78.6737 93.957 79.7828C94.8145 80.3428 95.941 80.4631 96.8795 80.03C99.7888 78.7591 102.383 76.8953 105.188 75.4231C105.605 75.1912 106.041 74.9747 106.402 74.6575C106.765 74.3097 106.949 73.6884 106.59 73.2728C105.89 72.3694 104.798 71.9209 103.768 71.5119C101.893 70.7922 100.036 70.0222 98.1329 69.3791C97.3257 69.1319 96.4376 68.7753 95.6107 69.1581ZM107.248 77.02C103.582 78.6366 100.34 81.0909 96.6213 82.6003C95.486 83.1362 94.1582 82.9634 93.0601 82.4253C90.737 81.3162 88.8338 79.5116 87.1407 77.6063C87.4842 79.0959 87.2829 80.6425 86.922 82.1081C86.4057 84.1491 85.5942 86.1309 84.4173 87.8831C83.5992 88.9878 82.7395 90.0816 82.2101 91.3613C80.8604 94.5528 79.8542 97.8778 78.581 101.098C77.8504 103.045 76.5642 104.722 75.8642 106.682C74.7354 109.662 74.1623 112.875 74.3242 116.062C74.4729 117.856 74.8054 119.742 75.9123 121.214C79.1454 125.248 84.0038 127.54 87.3398 131.465C88.5735 132.79 88.5035 135.137 87.1167 136.33C86.5435 136.857 85.7976 137.126 85.0626 137.334C86.5435 139.02 88.0157 140.716 89.4879 142.411C89.7526 142.818 90.2732 142.776 90.6976 142.838C94.716 143.163 98.7717 142.91 102.746 142.271C105.658 141.785 108.349 140.442 110.737 138.749C112.702 137.307 114.528 135.643 115.992 133.687C116.175 129.931 116 126.134 116.558 122.397C116.665 121.754 117.134 121.214 117.739 120.987C118.803 120.56 119.971 120.783 121.069 120.925C122.182 116.563 122.368 111.974 121.653 107.529C121.22 105.129 120.338 102.846 119.599 100.531C117.171 93.8353 114.371 87.2728 111.306 80.8459C110.571 79.4591 109.972 77.9847 109.02 76.7291C108.443 76.4491 107.806 76.8516 107.248 77.02ZM68.9101 122.325C68.5076 122.441 68.2013 122.748 67.9388 123.058C66.7073 124.69 66.2807 126.952 64.5417 128.177C62.3738 129.376 59.7532 129.26 57.5285 130.323C57.0167 130.572 56.4873 130.986 56.4982 131.618C56.3779 133.234 57.0823 134.783 57.0429 136.402C56.986 138.447 56.0388 140.322 55.6823 142.312C55.551 143.017 55.6101 143.964 56.3473 144.318C57.4935 144.909 58.8082 145.016 60.0551 145.274C62.3432 145.738 64.6663 146.012 66.9392 146.548C68.9626 147.011 70.8067 147.998 72.7492 148.7C75.3807 149.669 78.021 150.787 80.8451 151.01C81.5013 151.012 82.2604 151.056 82.7701 150.562C84.2379 149.372 85.7713 147.825 85.837 145.817C85.9135 143.894 84.8438 142.201 83.772 140.696C82.6476 139.344 81.497 138.005 80.5629 136.509C78.6532 133.567 76.8551 130.557 75.0526 127.551C74.0901 125.946 72.876 124.491 71.4673 123.257C70.7476 122.713 69.8595 122.072 68.9101 122.325ZM119.769 125.055C119.505 127.306 119.984 129.564 119.993 131.819C119.999 134.704 119.468 137.555 118.954 140.383C118.54 142.608 117.809 144.883 118.321 147.156C118.68 148.888 119.772 150.649 121.541 151.187C123.055 151.548 124.54 150.811 125.814 150.069C128.224 148.682 129.88 146.333 132.26 144.9C135.229 143.072 138.368 141.54 141.441 139.897C142.189 139.438 143.073 139.071 143.569 138.309C143.889 137.758 143.495 137.148 143.09 136.772C142.115 135.934 140.966 135.341 139.84 134.737C138.446 133.978 137.567 132.526 137.169 131.025C136.771 129.942 136.821 128.776 136.747 127.643C136.694 126.788 136.228 126.005 135.574 125.469C135.071 126.405 134.553 127.346 133.861 128.162C132.59 129.82 130.521 130.607 128.544 131.036C126.866 131.344 124.928 131.338 123.517 130.259C121.848 128.757 121.708 126.342 121.734 124.248C121.038 124.198 119.927 124.161 119.769 125.055Z" fill="white" fill-opacity="0.4"/>
</svg>
