<svg width="51" height="51" viewBox="0 0 51 51" fill="none" xmlns="http://www.w3.org/2000/svg">
<path d="M0.192653 2.0612C1.29459 -0.904505 5.02213 0.15662 7.40285 0.306266C13.7288 5.44864 18.7215 12.0875 25.1019 17.1618C31.5638 12.1691 36.4885 5.44864 42.8281 0.306266C44.5966 0.00697436 46.3788 -0.033838 48.1745 0.197433C51.1402 1.29937 50.0791 5.02691 49.9158 7.40763C44.8007 13.7608 38.121 18.7263 33.0603 25.1202C38.1346 31.5142 44.8007 36.4797 49.9158 42.8328C50.2151 44.615 50.2559 46.3971 50.0519 48.1929C48.9227 51.145 45.2088 50.0703 42.8281 49.9206C36.4885 44.7782 31.523 38.1122 25.1155 33.0379C18.7351 38.1258 13.756 44.7918 7.40285 49.907C5.62071 50.2199 3.83857 50.2743 2.05642 50.0567C-0.909284 48.9275 0.151841 45.2272 0.328695 42.8328C5.45746 36.4933 12.1099 31.5278 17.1842 25.1338C12.1507 18.7127 5.45746 13.7472 0.315091 7.40763C0.0157996 5.62549 -0.0386172 3.84334 0.192653 2.0612Z" fill="white"/>
</svg>