<svg width="51" height="51" viewBox="0 0 51 51" fill="none" xmlns="http://www.w3.org/2000/svg">
<path d="M2.26757 0.209999C3.47854 -0.0252859 4.70548 0.0940613 5.92443 0.0838315C19.0535 0.0736017 32.1851 0.0974709 45.3142 0.0701915C46.5517 0.12134 47.9676 -0.182143 49.0109 0.874934C50.2884 2.11956 50.4189 4.82022 49.2744 6.25921C48.6996 7.1151 47.7787 7.41858 46.9297 7.4254C32.9942 7.41176 19.0614 7.41517 5.12599 7.42199C3.80324 7.38108 2.29419 7.71184 1.16839 6.60702C0.25018 5.63519 -0.228884 3.86885 0.252842 2.42645C0.55891 1.30459 1.37598 0.465744 2.26757 0.209999Z" fill="white" stroke="black" stroke-width="0.125"/>
<path d="M12.9214 21.6925C13.3233 21.5254 13.7465 21.4436 14.1697 21.4265C25.1722 21.4402 36.1773 21.4265 47.1799 21.43C48.625 21.3447 50.0436 22.8553 50.0383 24.758C50.2725 26.8347 48.7714 28.7136 47.1852 28.6863C36.2705 28.7101 25.3558 28.6658 14.4411 28.7067C13.4165 28.7136 12.28 28.3521 11.7131 27.1552C10.6272 25.3786 11.2234 22.4222 12.9214 21.6925Z" fill="white" stroke="black" stroke-width="0.125"/>
<path d="M29.702 42.9194C30.6202 42.5682 31.5943 42.7216 32.5418 42.7011C37.1541 42.708 41.7691 42.7216 46.3841 42.6875C47.2224 42.7352 48.1406 42.6807 48.8512 43.3558C50.2671 44.5152 50.4694 47.3864 49.2744 48.8833C48.6969 49.7358 47.7813 50.0461 46.9297 50.0461C41.9554 50.0495 36.9811 50.0188 32.0068 50.0598C30.8916 50.0666 29.5955 50.128 28.7412 49.0402C27.1683 47.3727 27.7005 43.6355 29.702 42.9194Z" fill="white" stroke="black" stroke-width="0.125"/>
</svg>
